<svg width="300" height="300" viewBox="0 0 300 300" fill="none" xmlns="http://www.w3.org/2000/svg">
<circle cx="150" cy="150" r="150" fill="white"/>
<path d="M43.868 44C16.7621 71.1394 0 108.612 0 150C0 190.169 15.7892 226.65 41.5 253.575H258.5C284.211 226.65 300 190.169 300 150C300 108.612 283.238 71.1394 256.132 44H43.868Z" fill="#0BB05C"/>
<circle cx="150" cy="150" r="75" fill="white"/>
<path d="M128.381 106.018V188H113.501V123.369L93.7915 129.882V117.866L126.697 106.018H128.381ZM212.666 158.183V169.863H153.762L153.145 160.878L187.791 106.242H199.639L186.836 127.973L168.25 158.183H212.666ZM202.952 106.242V188H188.071V106.242H202.952Z" fill="black"/>
</svg>
