<svg width="300" height="300" viewBox="0 0 300 300" fill="none" xmlns="http://www.w3.org/2000/svg">
<circle cx="150" cy="150" r="150" fill="black"/>
<circle cx="150" cy="150" r="75" fill="white"/>
<path d="M177.79 166.651C177.79 171.743 176.592 176.048 174.196 179.566C171.838 183.048 168.6 185.687 164.482 187.484C160.402 189.243 155.76 190.123 150.556 190.123C145.39 190.123 140.729 189.243 136.574 187.484C132.456 185.687 129.181 183.048 126.748 179.566C124.352 176.048 123.154 171.743 123.154 166.651C123.154 163.245 123.828 160.156 125.175 157.386C126.56 154.616 128.47 152.239 130.903 150.255C133.336 148.233 136.219 146.699 139.55 145.65C142.882 144.565 146.513 144.022 150.444 144.022C155.685 144.022 160.364 144.977 164.482 146.886C168.637 148.757 171.894 151.397 174.252 154.803C176.611 158.172 177.79 162.122 177.79 166.651ZM162.854 165.753C162.854 163.132 162.329 160.868 161.281 158.958C160.271 157.012 158.829 155.514 156.958 154.466C155.086 153.418 152.915 152.894 150.444 152.894C147.936 152.894 145.746 153.418 143.874 154.466C142.04 155.514 140.598 157.012 139.55 158.958C138.54 160.868 138.034 163.132 138.034 165.753C138.034 168.411 138.54 170.694 139.55 172.604C140.598 174.475 142.058 175.917 143.93 176.927C145.802 177.938 148.011 178.443 150.556 178.443C153.102 178.443 155.292 177.938 157.126 176.927C158.96 175.917 160.364 174.475 161.337 172.604C162.348 170.694 162.854 168.411 162.854 165.753ZM175.993 128.805C175.993 132.923 174.908 136.591 172.736 139.811C170.565 142.993 167.552 145.482 163.696 147.279C159.877 149.076 155.498 149.974 150.556 149.974C145.615 149.974 141.197 149.076 137.304 147.279C133.448 145.482 130.416 142.993 128.208 139.811C126.036 136.591 124.951 132.923 124.951 128.805C124.951 123.938 126.055 119.82 128.264 116.451C130.472 113.045 133.486 110.462 137.304 108.702C141.16 106.943 145.54 106.063 150.444 106.063C155.423 106.063 159.84 106.943 163.696 108.702C167.552 110.462 170.565 113.045 172.736 116.451C174.908 119.82 175.993 123.938 175.993 128.805ZM161.169 129.422C161.169 127.101 160.738 125.08 159.877 123.358C159.016 121.598 157.781 120.232 156.171 119.259C154.599 118.285 152.69 117.799 150.444 117.799C148.273 117.799 146.401 118.267 144.829 119.203C143.256 120.139 142.04 121.486 141.179 123.246C140.318 124.968 139.887 127.027 139.887 129.422C139.887 131.781 140.318 133.84 141.179 135.599C142.04 137.359 143.256 138.744 144.829 139.754C146.438 140.728 148.347 141.214 150.556 141.214C152.765 141.214 154.655 140.728 156.228 139.754C157.8 138.744 159.016 137.359 159.877 135.599C160.738 133.84 161.169 131.781 161.169 129.422Z" fill="black"/>
</svg>
