<svg width="300" height="300" viewBox="0 0 300 300" fill="none" xmlns="http://www.w3.org/2000/svg">
<circle cx="150" cy="150" r="150" fill="#0BB05C"/>
<circle cx="150" cy="150" r="75" fill="white"/>
<path d="M164.819 106.568H166.84V118.529H165.886C161.356 118.529 157.369 119.221 153.925 120.606C150.519 121.992 147.674 123.938 145.39 126.446C143.144 128.917 141.441 131.856 140.28 135.262C139.12 138.631 138.54 142.319 138.54 146.324V159.576C138.54 162.683 138.858 165.416 139.494 167.774C140.168 170.095 141.085 172.061 142.246 173.67C143.444 175.243 144.829 176.422 146.401 177.208C148.011 177.994 149.77 178.387 151.679 178.387C153.588 178.387 155.31 177.994 156.845 177.208C158.38 176.422 159.69 175.318 160.776 173.895C161.899 172.435 162.741 170.732 163.303 168.785C163.902 166.839 164.201 164.705 164.201 162.384C164.201 160.1 163.92 157.985 163.359 156.039C162.797 154.092 161.974 152.389 160.888 150.929C159.803 149.431 158.455 148.29 156.845 147.503C155.273 146.68 153.476 146.268 151.455 146.268C148.834 146.268 146.494 146.886 144.436 148.121C142.377 149.319 140.748 150.891 139.55 152.838C138.352 154.785 137.697 156.843 137.585 159.015L132.587 156.544C132.775 153.362 133.448 150.442 134.609 147.784C135.807 145.126 137.398 142.805 139.382 140.821C141.403 138.837 143.78 137.302 146.513 136.217C149.283 135.131 152.353 134.588 155.722 134.588C159.615 134.588 163.022 135.337 165.942 136.834C168.862 138.294 171.276 140.297 173.186 142.843C175.132 145.388 176.592 148.327 177.565 151.659C178.539 154.953 179.025 158.434 179.025 162.103C179.025 166.034 178.389 169.702 177.116 173.109C175.881 176.515 174.084 179.492 171.726 182.037C169.367 184.583 166.522 186.567 163.19 187.989C159.859 189.412 156.115 190.123 151.96 190.123C147.58 190.123 143.649 189.299 140.168 187.652C136.724 186.005 133.767 183.722 131.296 180.802C128.825 177.882 126.935 174.475 125.625 170.582C124.314 166.689 123.659 162.477 123.659 157.948V151.996C123.659 145.594 124.539 139.642 126.298 134.139C128.058 128.636 130.66 123.826 134.104 119.708C137.585 115.553 141.89 112.333 147.019 110.05C152.147 107.729 158.081 106.568 164.819 106.568Z" fill="black"/>
</svg>
