<svg width="300" height="300" viewBox="0 0 300 300" fill="none" xmlns="http://www.w3.org/2000/svg">
<circle cx="150" cy="150" r="150" fill="#0B5AEF"/>
<circle cx="150" cy="150" r="75" fill="white"/>
<path d="M178.913 177.32V189H123.547V179.005L150.107 150.311C152.877 147.167 155.067 144.434 156.677 142.113C158.286 139.792 159.428 137.695 160.102 135.824C160.813 133.915 161.169 132.099 161.169 130.377C161.169 127.869 160.72 125.679 159.821 123.807C158.923 121.898 157.613 120.419 155.891 119.371C154.206 118.323 152.128 117.799 149.658 117.799C146.925 117.799 144.585 118.435 142.639 119.708C140.729 120.943 139.27 122.665 138.259 124.874C137.285 127.083 136.799 129.61 136.799 132.455H121.918C121.918 127.625 123.042 123.227 125.288 119.259C127.534 115.253 130.753 112.053 134.946 109.657C139.139 107.261 144.117 106.063 149.882 106.063C155.498 106.063 160.252 106.999 164.145 108.871C168.038 110.705 170.996 113.325 173.017 116.732C175.039 120.139 176.049 124.2 176.049 128.917C176.049 131.537 175.619 134.12 174.758 136.666C173.897 139.212 172.68 141.738 171.108 144.247C169.573 146.717 167.739 149.225 165.605 151.771C163.471 154.317 161.094 156.918 158.474 159.576L142.526 177.32H178.913Z" fill="black"/>
</svg>
