<svg width="300" height="300" viewBox="0 0 300 300" fill="none" xmlns="http://www.w3.org/2000/svg">
<circle cx="150" cy="150" r="150" fill="white"/>
<path d="M43.868 44C16.7621 71.1394 0 108.612 0 150C0 190.169 15.7892 226.65 41.5 253.575H258.5C284.211 226.65 300 190.169 300 150C300 108.612 283.238 71.1394 256.132 44H43.868Z" fill="#B20C0E"/>
<circle cx="150" cy="150" r="75" fill="white"/>
<path d="M128.381 107.018V189H113.501V124.369L93.7915 130.882V118.866L126.697 107.018H128.381ZM170.608 151.378L158.76 148.514L163.308 107.242H208.286V119.54H175.605L173.472 138.631C174.632 137.92 176.317 137.209 178.525 136.498C180.771 135.749 183.298 135.375 186.106 135.375C189.999 135.375 193.481 136.011 196.55 137.284C199.62 138.519 202.222 140.316 204.355 142.674C206.527 145.033 208.155 147.915 209.241 151.322C210.364 154.691 210.925 158.509 210.925 162.777C210.925 166.52 210.364 170.039 209.241 173.333C208.155 176.59 206.489 179.492 204.243 182.037C201.997 184.545 199.171 186.529 195.764 187.989C192.358 189.412 188.352 190.123 183.748 190.123C180.266 190.123 176.916 189.618 173.696 188.607C170.514 187.559 167.651 186.043 165.105 184.059C162.559 182.037 160.519 179.566 158.984 176.646C157.487 173.727 156.663 170.376 156.514 166.595H171.169C171.431 169.103 172.105 171.237 173.191 172.997C174.277 174.756 175.699 176.104 177.458 177.04C179.255 177.975 181.333 178.443 183.691 178.443C185.825 178.443 187.66 178.05 189.194 177.264C190.767 176.441 192.058 175.299 193.069 173.839C194.08 172.379 194.828 170.657 195.315 168.673C195.802 166.689 196.045 164.518 196.045 162.159C196.045 159.876 195.764 157.798 195.203 155.926C194.641 154.017 193.78 152.37 192.62 150.985C191.459 149.6 189.999 148.533 188.24 147.784C186.518 147.035 184.496 146.661 182.175 146.661C179.068 146.661 176.672 147.129 174.988 148.065C173.341 149.001 171.881 150.105 170.608 151.378Z" fill="black"/>
</svg>
