<svg width="300" height="300" viewBox="0 0 300 300" fill="none" xmlns="http://www.w3.org/2000/svg">
<circle cx="150" cy="150" r="150" fill="white"/>
<path d="M43.868 44C16.7621 71.1394 0 108.612 0 150C0 190.169 15.7892 226.65 41.5 253.575H258.5C284.211 226.65 300 190.169 300 150C300 108.612 283.238 71.1394 256.132 44H43.868Z" fill="#0B5AEF"/>
<circle cx="150" cy="150" r="75" fill="white"/>
<path d="M128.381 107.018V189H113.501V124.369L93.7915 130.882V118.866L126.697 107.018H128.381ZM210.027 141.102V154.859C210.027 161.148 209.39 166.52 208.118 170.975C206.845 175.43 205.011 179.08 202.615 181.925C200.219 184.732 197.355 186.81 194.023 188.158C190.692 189.468 186.986 190.123 182.905 190.123C179.648 190.123 176.616 189.711 173.809 188.888C171.001 188.027 168.474 186.716 166.228 184.957C164.019 183.16 162.11 180.877 160.5 178.106C158.928 175.336 157.712 172.023 156.851 168.167C156.027 164.312 155.615 159.876 155.615 154.859V141.102C155.615 134.813 156.252 129.46 157.524 125.042C158.835 120.625 160.688 117.013 163.083 114.205C165.479 111.397 168.343 109.357 171.675 108.084C175.007 106.774 178.713 106.119 182.793 106.119C186.087 106.119 189.119 106.531 191.89 107.354C194.697 108.178 197.205 109.47 199.414 111.229C201.66 112.951 203.569 115.197 205.142 117.967C206.714 120.7 207.912 123.994 208.735 127.85C209.596 131.668 210.027 136.086 210.027 141.102ZM195.203 156.881V139.024C195.203 135.88 195.015 133.147 194.641 130.826C194.304 128.468 193.799 126.465 193.125 124.818C192.451 123.171 191.609 121.842 190.598 120.831C189.587 119.783 188.427 119.015 187.117 118.529C185.806 118.042 184.365 117.799 182.793 117.799C180.846 117.799 179.106 118.192 177.571 118.978C176.036 119.727 174.744 120.925 173.696 122.572C172.648 124.219 171.843 126.409 171.282 129.142C170.758 131.837 170.496 135.131 170.496 139.024V156.881C170.496 160.025 170.664 162.777 171.001 165.135C171.375 167.494 171.899 169.515 172.573 171.2C173.285 172.884 174.127 174.269 175.1 175.355C176.111 176.403 177.271 177.189 178.582 177.713C179.892 178.2 181.333 178.443 182.905 178.443C184.889 178.443 186.63 178.05 188.127 177.264C189.662 176.478 190.954 175.243 192.002 173.558C193.05 171.836 193.836 169.609 194.36 166.876C194.922 164.106 195.203 160.774 195.203 156.881Z" fill="black"/>
</svg>
