<svg width="300" height="300" viewBox="0 0 300 300" fill="none" xmlns="http://www.w3.org/2000/svg">
<circle cx="150" cy="150" r="150" fill="white"/>
<path d="M43.868 44C16.7621 71.1394 0 108.612 0 150C0 190.169 15.7892 226.65 41.5 253.575H258.5C284.211 226.65 300 190.169 300 150C300 108.612 283.238 71.1394 256.132 44H43.868Z" fill="#FD830D"/>
<circle cx="150" cy="150" r="75" fill="white"/>
<path d="M128.381 107.018V189H113.501V124.369L93.7915 130.882V118.866L126.697 107.018H128.381ZM172.124 141.551H180.491C183.448 141.551 185.881 141.046 187.791 140.035C189.737 138.987 191.178 137.564 192.114 135.768C193.088 133.933 193.574 131.818 193.574 129.422C193.574 127.064 193.144 125.024 192.283 123.302C191.422 121.542 190.111 120.195 188.352 119.259C186.63 118.285 184.421 117.799 181.726 117.799C179.555 117.799 177.552 118.229 175.718 119.09C173.921 119.951 172.48 121.187 171.394 122.796C170.346 124.369 169.822 126.259 169.822 128.468H154.941C154.941 124.05 156.102 120.176 158.423 116.844C160.781 113.475 163.963 110.836 167.969 108.927C171.974 107.018 176.448 106.063 181.389 106.063C186.78 106.063 191.497 106.961 195.54 108.758C199.62 110.518 202.783 113.119 205.029 116.563C207.313 120.007 208.455 124.275 208.455 129.366C208.455 131.799 207.874 134.233 206.714 136.666C205.591 139.062 203.925 141.233 201.716 143.18C199.545 145.089 196.868 146.642 193.687 147.84C190.542 149.001 186.93 149.581 182.849 149.581H172.124V141.551ZM172.124 153.006V145.089H182.849C187.454 145.089 191.44 145.632 194.81 146.717C198.216 147.765 201.024 149.263 203.232 151.209C205.441 153.119 207.069 155.346 208.118 157.892C209.203 160.437 209.746 163.17 209.746 166.09C209.746 169.908 209.035 173.315 207.612 176.31C206.19 179.267 204.187 181.775 201.604 183.834C199.058 185.893 196.064 187.465 192.62 188.551C189.176 189.599 185.451 190.123 181.445 190.123C177.964 190.123 174.576 189.655 171.282 188.719C168.025 187.746 165.086 186.305 162.466 184.396C159.845 182.449 157.768 180.016 156.233 177.096C154.698 174.138 153.931 170.713 153.931 166.82H168.811C168.811 169.066 169.354 171.069 170.439 172.828C171.562 174.588 173.097 175.973 175.044 176.983C177.028 177.957 179.255 178.443 181.726 178.443C184.459 178.443 186.799 177.957 188.745 176.983C190.729 175.973 192.245 174.55 193.293 172.716C194.342 170.844 194.866 168.617 194.866 166.034C194.866 162.964 194.285 160.475 193.125 158.565C191.965 156.656 190.299 155.252 188.127 154.354C185.994 153.456 183.448 153.006 180.491 153.006H172.124Z" fill="black"/>
</svg>
