<svg width="300" height="300" viewBox="0 0 300 300" fill="none" xmlns="http://www.w3.org/2000/svg">
<circle cx="150" cy="150" r="150" fill="#FD830D"/>
<circle cx="150" cy="150" r="75" fill="white"/>
<path d="M138.259 151.378L126.411 148.514L130.959 107.242H175.937V119.54H143.256L141.123 138.631C142.283 137.92 143.968 137.209 146.176 136.498C148.422 135.749 150.949 135.375 153.757 135.375C157.65 135.375 161.132 136.011 164.201 137.284C167.271 138.519 169.873 140.316 172.006 142.674C174.178 145.033 175.806 147.915 176.892 151.322C178.015 154.691 178.576 158.509 178.576 162.777C178.576 166.52 178.015 170.039 176.892 173.333C175.806 176.59 174.14 179.492 171.894 182.037C169.648 184.545 166.822 186.529 163.415 187.989C160.008 189.412 156.003 190.123 151.398 190.123C147.917 190.123 144.567 189.618 141.347 188.607C138.165 187.559 135.301 186.043 132.756 184.059C130.21 182.037 128.17 179.566 126.635 176.646C125.138 173.727 124.314 170.376 124.165 166.595H138.82C139.082 169.103 139.756 171.237 140.842 172.997C141.927 174.756 143.35 176.104 145.109 177.04C146.906 177.975 148.984 178.443 151.342 178.443C153.476 178.443 155.31 178.05 156.845 177.264C158.417 176.441 159.709 175.299 160.72 173.839C161.73 172.379 162.479 170.657 162.966 168.673C163.452 166.689 163.696 164.518 163.696 162.159C163.696 159.876 163.415 157.798 162.854 155.926C162.292 154.017 161.431 152.37 160.271 150.985C159.11 149.6 157.65 148.533 155.891 147.784C154.169 147.035 152.147 146.661 149.826 146.661C146.719 146.661 144.323 147.129 142.639 148.065C140.992 149.001 139.532 150.105 138.259 151.378Z" fill="black"/>
</svg>
