<svg width="300" height="300" viewBox="0 0 300 300" fill="none" xmlns="http://www.w3.org/2000/svg">
<circle cx="150" cy="150" r="150" fill="#FE0E0D"/>
<circle cx="150" cy="150" r="75" fill="white"/>
<path d="M139.775 141.551H148.142C151.099 141.551 153.532 141.046 155.441 140.035C157.388 138.987 158.829 137.564 159.765 135.768C160.738 133.933 161.225 131.818 161.225 129.422C161.225 127.064 160.795 125.024 159.934 123.302C159.073 121.542 157.762 120.195 156.003 119.259C154.281 118.285 152.072 117.799 149.377 117.799C147.206 117.799 145.203 118.229 143.369 119.09C141.572 119.951 140.131 121.187 139.045 122.796C137.997 124.369 137.473 126.259 137.473 128.468H122.592C122.592 124.05 123.753 120.176 126.074 116.844C128.432 113.475 131.614 110.836 135.62 108.927C139.625 107.018 144.099 106.063 149.04 106.063C154.431 106.063 159.147 106.961 163.19 108.758C167.271 110.518 170.434 113.119 172.68 116.563C174.964 120.007 176.105 124.275 176.105 129.366C176.105 131.799 175.525 134.233 174.365 136.666C173.242 139.062 171.576 141.233 169.367 143.18C167.196 145.089 164.519 146.642 161.337 147.84C158.193 149.001 154.58 149.581 150.5 149.581H139.775V141.551ZM139.775 153.006V145.089H150.5C155.104 145.089 159.091 145.632 162.46 146.717C165.867 147.765 168.675 149.263 170.883 151.209C173.092 153.119 174.72 155.346 175.769 157.892C176.854 160.437 177.397 163.17 177.397 166.09C177.397 169.908 176.686 173.315 175.263 176.31C173.841 179.267 171.838 181.775 169.255 183.834C166.709 185.893 163.715 187.465 160.271 188.551C156.826 189.599 153.102 190.123 149.096 190.123C145.615 190.123 142.227 189.655 138.933 188.719C135.676 187.746 132.737 186.305 130.117 184.396C127.496 182.449 125.419 180.016 123.884 177.096C122.349 174.138 121.582 170.713 121.582 166.82H136.462C136.462 169.066 137.005 171.069 138.09 172.828C139.213 174.588 140.748 175.973 142.695 176.983C144.679 177.957 146.906 178.443 149.377 178.443C152.11 178.443 154.449 177.957 156.396 176.983C158.38 175.973 159.896 174.55 160.944 172.716C161.993 170.844 162.517 168.617 162.517 166.034C162.517 162.964 161.936 160.475 160.776 158.565C159.615 156.656 157.95 155.252 155.778 154.354C153.645 153.456 151.099 153.006 148.142 153.006H139.775Z" fill="black"/>
</svg>
