<svg width="300" height="300" viewBox="0 0 300 300" fill="none" xmlns="http://www.w3.org/2000/svg">
<circle cx="150" cy="150" r="150" fill="white"/>
<path d="M43.868 44C16.7621 71.1394 0 108.612 0 150C0 190.169 15.7892 226.65 41.5 253.575H258.5C284.211 226.65 300 190.169 300 150C300 108.612 283.238 71.1394 256.132 44H43.868Z" fill="#FFD50D"/>
<circle cx="150" cy="150" r="75" fill="white"/>
<path d="M134.721 177.489H135.788C140.617 177.489 144.698 176.871 148.029 175.636C151.398 174.4 154.112 172.66 156.171 170.414C158.268 168.13 159.784 165.416 160.72 162.271C161.693 159.09 162.18 155.571 162.18 151.715V136.891C162.18 133.746 161.861 130.995 161.225 128.636C160.589 126.24 159.69 124.238 158.53 122.628C157.407 121.018 156.078 119.82 154.543 119.034C153.008 118.211 151.361 117.799 149.602 117.799C147.655 117.799 145.933 118.248 144.436 119.146C142.938 120.045 141.665 121.28 140.617 122.853C139.606 124.387 138.82 126.166 138.259 128.187C137.735 130.208 137.473 132.342 137.473 134.588C137.473 136.76 137.716 138.837 138.203 140.821C138.727 142.805 139.494 144.565 140.505 146.1C141.553 147.634 142.863 148.851 144.436 149.75C146.008 150.611 147.842 151.041 149.938 151.041C151.923 151.041 153.719 150.667 155.329 149.918C156.976 149.132 158.399 148.102 159.597 146.83C160.795 145.519 161.712 144.078 162.348 142.506C163.022 140.896 163.396 139.268 163.471 137.621L168.693 139.867C168.693 142.599 168.113 145.295 166.953 147.953C165.83 150.611 164.239 153.025 162.18 155.196C160.158 157.33 157.8 159.052 155.104 160.362C152.409 161.635 149.508 162.271 146.401 162.271C142.545 162.271 139.139 161.56 136.181 160.138C133.224 158.715 130.734 156.75 128.713 154.242C126.729 151.696 125.231 148.776 124.221 145.482C123.21 142.15 122.705 138.594 122.705 134.813C122.705 130.882 123.322 127.195 124.558 123.751C125.793 120.27 127.571 117.219 129.892 114.598C132.25 111.94 135.096 109.863 138.427 108.365C141.759 106.83 145.502 106.063 149.658 106.063C153.963 106.063 157.8 106.905 161.169 108.59C164.538 110.274 167.402 112.614 169.76 115.609C172.119 118.566 173.916 122.066 175.151 126.109C176.424 130.152 177.06 134.57 177.06 139.361V144.583C177.06 149.637 176.555 154.429 175.544 158.958C174.533 163.488 172.98 167.625 170.883 171.368C168.787 175.112 166.11 178.35 162.854 181.083C159.634 183.815 155.778 185.93 151.286 187.428C146.831 188.888 141.74 189.618 136.013 189.618H134.721V177.489Z" fill="black"/>
</svg>
