<svg width="300" height="300" viewBox="0 0 300 300" fill="none" xmlns="http://www.w3.org/2000/svg">
<circle cx="150" cy="150" r="150" fill="white"/>
<path d="M43.868 44C16.7621 71.1394 0 108.612 0 150C0 190.169 15.7892 226.65 41.5 253.575H258.5C284.211 226.65 300 190.169 300 150C300 108.612 283.238 71.1394 256.132 44H43.868Z" fill="#8B0BB6"/>
<circle cx="150" cy="150" r="75" fill="white"/>
<path d="M128.381 107.018V189H113.501V124.369L93.7915 130.882V118.866L126.697 107.018H128.381ZM211.262 177.32V189H155.896V179.005L182.456 150.311C185.226 147.167 187.416 144.434 189.026 142.113C190.636 139.792 191.777 137.695 192.451 135.824C193.162 133.915 193.518 132.099 193.518 130.377C193.518 127.869 193.069 125.679 192.17 123.807C191.272 121.898 189.962 120.419 188.24 119.371C186.555 118.323 184.478 117.799 182.007 117.799C179.274 117.799 176.934 118.435 174.988 119.708C173.079 120.943 171.619 122.665 170.608 124.874C169.635 127.083 169.148 129.61 169.148 132.455H154.268C154.268 127.625 155.391 123.227 157.637 119.259C159.883 115.253 163.102 112.053 167.295 109.657C171.488 107.261 176.466 106.063 182.231 106.063C187.847 106.063 192.601 106.999 196.494 108.871C200.387 110.705 203.345 113.325 205.366 116.732C207.388 120.139 208.398 124.2 208.398 128.917C208.398 131.537 207.968 134.12 207.107 136.666C206.246 139.212 205.029 141.738 203.457 144.247C201.922 146.717 200.088 149.225 197.954 151.771C195.82 154.317 193.443 156.918 190.823 159.576L174.875 177.32H211.262Z" fill="black"/>
</svg>
