<svg width="310" height="100" viewBox="0 0 310 100" fill="none" xmlns="http://www.w3.org/2000/svg">
<g filter="url(#filter0_d_2158_21)">
<rect width="300" height="90" rx="10" fill="#643E30"/>
</g>
<circle cx="253.5" cy="44.5" r="23.5" fill="#EEB312" stroke="#E7A517" stroke-width="10"/>
<g filter="url(#filter1_i_2158_21)">
<path d="M253.312 50.0339C253.781 50.0339 254.016 49.8713 254.016 49.5461C254.016 49.2209 253.902 48.8416 253.673 48.408C253.456 47.9623 253.143 47.5528 252.734 47.1794C251.65 46.1798 250.204 45.6799 248.398 45.6799C247.53 45.6799 246.772 45.7883 246.121 46.0051C245.134 45.6438 244.345 44.9874 243.755 44.0359C243.164 43.0844 242.869 42.0064 242.869 40.802C242.869 38.5497 243.712 36.7491 245.399 35.4001C246.82 34.268 248.711 33.5273 251.071 33.178C251.083 33.1418 251.089 33.0756 251.089 32.9792C251.089 32.642 250.909 32.4734 250.547 32.4734C250.343 32.4734 249.993 32.5457 249.5 32.6902V30.739C250.596 29.9682 251.884 29.5828 253.366 29.5828C254.859 29.5828 256.244 29.9682 257.521 30.739V33.3044C259.508 33.6658 261.026 34.1475 262.074 34.7498C262.351 35.5567 262.489 36.454 262.489 37.4417C262.489 39.3206 262.056 40.7358 261.189 41.6873C260.719 41.35 259.99 41.0489 259.003 40.7839C258.027 40.519 257.1 40.3865 256.22 40.3865C255.341 40.3865 254.745 40.4587 254.432 40.6033C254.131 40.7478 253.98 40.8984 253.98 41.0549C253.98 41.1633 253.998 41.2657 254.034 41.3621C254.456 41.2537 254.998 41.1995 255.66 41.1995C257.985 41.1995 259.9 41.7716 261.405 42.9158C263.152 44.2647 264.025 46.234 264.025 48.8235C264.025 50.7024 263.351 52.3585 262.002 53.7917C260.665 55.213 258.78 56.1645 256.347 56.6462C256.335 56.6824 256.329 56.7486 256.329 56.845C256.329 57.1822 256.509 57.3508 256.871 57.3508C257.075 57.3508 257.425 57.2786 257.919 57.134V59.0852C256.823 59.856 255.528 60.2415 254.034 60.2415C252.553 60.2415 251.174 59.856 249.897 59.0852V56.7185C247.934 56.4535 246.175 55.8875 244.622 55.0203C243.718 53.7917 243.267 52.509 243.267 51.1721C243.267 49.8352 243.73 48.7211 244.658 47.8298C245.585 46.9386 246.723 46.4929 248.072 46.4929C249.433 46.4929 250.541 46.7699 251.397 47.324C252.264 47.878 252.902 48.7813 253.312 50.0339Z" fill="#E7A517"/>
</g>
<defs>
<filter id="filter0_d_2158_21" x="0" y="0" width="310" height="100" filterUnits="userSpaceOnUse" color-interpolation-filters="sRGB">
<feFlood flood-opacity="0" result="BackgroundImageFix"/>
<feColorMatrix in="SourceAlpha" type="matrix" values="0 0 0 0 0 0 0 0 0 0 0 0 0 0 0 0 0 0 127 0" result="hardAlpha"/>
<feOffset dx="6" dy="6"/>
<feGaussianBlur stdDeviation="2"/>
<feComposite in2="hardAlpha" operator="out"/>
<feColorMatrix type="matrix" values="0 0 0 0 0 0 0 0 0 0 0 0 0 0 0 0 0 0 0.25 0"/>
<feBlend mode="normal" in2="BackgroundImageFix" result="effect1_dropShadow_2158_21"/>
<feBlend mode="normal" in="SourceGraphic" in2="effect1_dropShadow_2158_21" result="shape"/>
</filter>
<filter id="filter1_i_2158_21" x="242.869" y="29.5828" width="21.1558" height="34.6587" filterUnits="userSpaceOnUse" color-interpolation-filters="sRGB">
<feFlood flood-opacity="0" result="BackgroundImageFix"/>
<feBlend mode="normal" in="SourceGraphic" in2="BackgroundImageFix" result="shape"/>
<feColorMatrix in="SourceAlpha" type="matrix" values="0 0 0 0 0 0 0 0 0 0 0 0 0 0 0 0 0 0 127 0" result="hardAlpha"/>
<feOffset dy="4"/>
<feGaussianBlur stdDeviation="2"/>
<feComposite in2="hardAlpha" operator="arithmetic" k2="-1" k3="1"/>
<feColorMatrix type="matrix" values="0 0 0 0 0 0 0 0 0 0 0 0 0 0 0 0 0 0 0.25 0"/>
<feBlend mode="normal" in2="shape" result="effect1_innerShadow_2158_21"/>
</filter>
</defs>
</svg>
