<svg width="300" height="300" viewBox="0 0 300 300" fill="none" xmlns="http://www.w3.org/2000/svg">
<rect x="5" y="5" width="290" height="290" rx="5" fill="white" stroke="#643E30" stroke-width="10"/>
<circle cx="149.57" cy="163.43" r="86.5698" fill="#EEB312" stroke="#E7A517" stroke-width="10"/>
<g filter="url(#filter0_i_2153_76)">
<path d="M148.998 180.309C150.509 180.309 151.264 179.786 151.264 178.74C151.264 177.694 150.896 176.474 150.16 175.079C149.463 173.646 148.456 172.329 147.139 171.128C143.652 167.913 139.004 166.305 133.193 166.305C130.404 166.305 127.964 166.654 125.872 167.351C122.696 166.189 120.158 164.078 118.26 161.018C116.362 157.958 115.413 154.491 115.413 150.617C115.413 143.373 118.125 137.582 123.548 133.243C128.119 129.602 134.201 127.22 141.793 126.096C141.832 125.98 141.851 125.767 141.851 125.457C141.851 124.373 141.27 123.83 140.108 123.83C139.449 123.83 138.326 124.063 136.738 124.528V118.252C140.263 115.773 144.408 114.533 149.172 114.533C153.976 114.533 158.431 115.773 162.537 118.252V126.503C168.928 127.665 173.809 129.215 177.179 131.152C178.07 133.747 178.516 136.633 178.516 139.809C178.516 145.852 177.121 150.404 174.332 153.464C172.821 152.379 170.478 151.411 167.301 150.559C164.164 149.707 161.181 149.281 158.353 149.281C155.525 149.281 153.608 149.513 152.601 149.978C151.632 150.443 151.148 150.927 151.148 151.43C151.148 151.779 151.206 152.108 151.322 152.418C152.678 152.07 154.421 151.895 156.552 151.895C164.028 151.895 170.187 153.735 175.029 157.415C180.646 161.754 183.455 168.087 183.455 176.416C183.455 182.459 181.285 187.785 176.947 192.395C172.647 196.966 166.585 200.026 158.76 201.575C158.721 201.692 158.702 201.905 158.702 202.215C158.702 203.299 159.283 203.842 160.445 203.842C161.103 203.842 162.227 203.609 163.815 203.144V209.42C160.29 211.899 156.126 213.138 151.322 213.138C146.558 213.138 142.122 211.899 138.016 209.42V201.808C131.702 200.956 126.046 199.135 121.049 196.346C118.144 192.395 116.691 188.269 116.691 183.969C116.691 179.67 118.183 176.087 121.166 173.22C124.148 170.353 127.809 168.92 132.148 168.92C136.525 168.92 140.089 169.811 142.839 171.593C145.628 173.375 147.681 176.28 148.998 180.309Z" fill="#E7A517"/>
</g>
<path d="M201.213 49.9035C203.214 47.3928 207.03 47.3928 209.032 49.9035L229.314 75.3423C231.925 78.6174 229.593 83.4593 225.404 83.4593H184.84C180.651 83.4593 178.319 78.6174 180.93 75.3423L201.213 49.9035Z" fill="#2E9D18"/>
<rect x="194.744" y="80.407" width="20.7558" height="57.3837" rx="4" fill="#2E9D18"/>
<defs>
<filter id="filter0_i_2153_76" x="115.413" y="114.533" width="68.0415" height="102.605" filterUnits="userSpaceOnUse" color-interpolation-filters="sRGB">
<feFlood flood-opacity="0" result="BackgroundImageFix"/>
<feBlend mode="normal" in="SourceGraphic" in2="BackgroundImageFix" result="shape"/>
<feColorMatrix in="SourceAlpha" type="matrix" values="0 0 0 0 0 0 0 0 0 0 0 0 0 0 0 0 0 0 127 0" result="hardAlpha"/>
<feOffset dy="4"/>
<feGaussianBlur stdDeviation="2"/>
<feComposite in2="hardAlpha" operator="arithmetic" k2="-1" k3="1"/>
<feColorMatrix type="matrix" values="0 0 0 0 0 0 0 0 0 0 0 0 0 0 0 0 0 0 0.25 0"/>
<feBlend mode="normal" in2="shape" result="effect1_innerShadow_2153_76"/>
</filter>
</defs>
</svg>
