<svg width="300" height="300" viewBox="0 0 300 300" fill="none" xmlns="http://www.w3.org/2000/svg">
<circle cx="150" cy="150" r="145" fill="#EEB312" stroke="#E7A517" stroke-width="10"/>
<g filter="url(#filter0_i_2153_6)">
<path d="M148.527 176.697C150.978 176.697 152.203 175.849 152.203 174.153C152.203 172.457 151.606 170.478 150.412 168.216C149.281 165.891 147.648 163.755 145.512 161.808C139.857 156.593 132.318 153.986 122.895 153.986C118.371 153.986 114.413 154.551 111.021 155.682C105.869 153.797 101.754 150.373 98.6753 145.41C95.5968 140.447 94.0576 134.824 94.0576 128.542C94.0576 116.793 98.4554 107.401 107.251 100.364C114.664 94.4587 124.528 90.5949 136.842 88.7729C136.905 88.5845 136.936 88.2389 136.936 87.7363C136.936 85.9772 135.994 85.0977 134.109 85.0977C133.041 85.0977 131.219 85.4746 128.643 86.2285V76.0508C134.36 72.0299 141.083 70.0195 148.81 70.0195C156.6 70.0195 163.825 72.0299 170.485 76.0508V89.4326C180.851 91.3174 188.767 93.8304 194.233 96.9717C195.678 101.181 196.4 105.861 196.4 111.013C196.4 120.814 194.139 128.196 189.615 133.159C187.165 131.4 183.364 129.829 178.212 128.447C173.124 127.065 168.286 126.374 163.7 126.374C159.113 126.374 156.004 126.751 154.37 127.505C152.799 128.259 152.014 129.044 152.014 129.861C152.014 130.426 152.108 130.96 152.297 131.463C154.496 130.897 157.323 130.615 160.778 130.615C172.904 130.615 182.893 133.599 190.746 139.567C199.856 146.604 204.411 156.876 204.411 170.383C204.411 180.184 200.892 188.823 193.856 196.299C186.882 203.712 177.05 208.675 164.359 211.188C164.297 211.377 164.265 211.722 164.265 212.225C164.265 213.984 165.208 214.864 167.092 214.864C168.16 214.864 169.982 214.487 172.558 213.733V223.911C166.841 227.931 160.087 229.942 152.297 229.942C144.569 229.942 137.376 227.931 130.716 223.911V211.565C120.476 210.183 111.303 207.23 103.199 202.707C98.4868 196.299 96.1309 189.608 96.1309 182.634C96.1309 175.661 98.5496 169.849 103.387 165.2C108.225 160.551 114.162 158.227 121.198 158.227C128.298 158.227 134.077 159.672 138.538 162.562C143.062 165.451 146.391 170.163 148.527 176.697Z" fill="#E7A517"/>
</g>
<defs>
<filter id="filter0_i_2153_6" x="94.0576" y="70.0195" width="110.353" height="163.922" filterUnits="userSpaceOnUse" color-interpolation-filters="sRGB">
<feFlood flood-opacity="0" result="BackgroundImageFix"/>
<feBlend mode="normal" in="SourceGraphic" in2="BackgroundImageFix" result="shape"/>
<feColorMatrix in="SourceAlpha" type="matrix" values="0 0 0 0 0 0 0 0 0 0 0 0 0 0 0 0 0 0 127 0" result="hardAlpha"/>
<feOffset dy="4"/>
<feGaussianBlur stdDeviation="2"/>
<feComposite in2="hardAlpha" operator="arithmetic" k2="-1" k3="1"/>
<feColorMatrix type="matrix" values="0 0 0 0 0 0 0 0 0 0 0 0 0 0 0 0 0 0 0.25 0"/>
<feBlend mode="normal" in2="shape" result="effect1_innerShadow_2153_6"/>
</filter>
</defs>
</svg>
