<svg width="301" height="285" viewBox="0 0 301 285" fill="none" xmlns="http://www.w3.org/2000/svg">
<ellipse cx="150" cy="142.5" rx="150" ry="142.5" fill="black" fill-opacity="0.2"/>
<path d="M0.500015 167.45C0.513792 144.654 9.89401 120.265 25.9588 98.6543M275.041 98.6543C290.698 119.715 300.005 143.416 300.481 165.709M5.5 167.5C5.5 167.191 5.50184 166.881 5.50551 166.571C5.84195 138.383 21.4815 112.483 47.3995 93.3903C73.6 74.0893 110.035 62 150.5 62C190.965 62 227.4 74.0893 253.6 93.3903C279.519 112.483 295.158 138.383 295.494 166.571C295.498 166.881 295.5 167.191 295.5 167.5C295.5 196.048 279.803 222.307 253.6 241.61C227.4 260.911 190.965 273 150.5 273C110.035 273 73.6 260.911 47.3995 241.61C21.1971 222.307 5.5 196.048 5.5 167.5Z" fill="#EEB312" stroke="#E7A517" stroke-width="10"/>
<path d="M150.5 57C67.6573 57 0.499958 106.473 0.499958 167.5C-4 79 67.6573 34 150.5 34C233.343 34 300.5 77.5 300.5 167.5C300.5 106.473 233.343 57 150.5 57Z" fill="#FFD769"/>
<g filter="url(#filter0_i_2146_589)">
<path d="M150.383 177.493C152.109 177.493 152.973 177.06 152.973 176.193C152.973 175.327 152.552 174.316 151.711 173.161C150.914 171.973 149.763 170.882 148.258 169.887C144.273 167.223 138.961 165.892 132.32 165.892C129.133 165.892 126.344 166.18 123.953 166.758C120.323 165.795 117.423 164.046 115.254 161.511C113.085 158.976 112 156.103 112 152.894C112 146.893 115.099 142.095 121.297 138.501C126.521 135.484 133.471 133.51 142.148 132.58C142.193 132.483 142.215 132.307 142.215 132.05C142.215 131.151 141.551 130.702 140.223 130.702C139.47 130.702 138.186 130.895 136.371 131.28V126.081C140.4 124.027 145.137 123 150.582 123C156.072 123 161.163 124.027 165.855 126.081V132.917C173.16 133.879 178.738 135.163 182.59 136.768C183.608 138.918 184.117 141.309 184.117 143.94C184.117 148.947 182.523 152.718 179.336 155.253C177.609 154.354 174.931 153.552 171.301 152.846C167.715 152.14 164.306 151.787 161.074 151.787C157.842 151.787 155.651 151.98 154.5 152.365C153.393 152.75 152.84 153.151 152.84 153.568C152.84 153.857 152.906 154.13 153.039 154.386C154.589 154.098 156.581 153.953 159.016 153.953C167.56 153.953 174.599 155.478 180.133 158.526C186.552 162.121 189.762 167.368 189.762 174.268C189.762 179.274 187.283 183.687 182.324 187.506C177.41 191.293 170.482 193.828 161.539 195.112C161.495 195.208 161.473 195.385 161.473 195.641C161.473 196.54 162.137 196.989 163.465 196.989C164.217 196.989 165.501 196.797 167.316 196.412V201.611C163.288 203.664 158.529 204.691 153.039 204.691C147.594 204.691 142.525 203.664 137.832 201.611V195.304C130.616 194.598 124.152 193.09 118.441 190.779C115.121 187.506 113.461 184.088 113.461 180.526C113.461 176.964 115.165 173.995 118.574 171.62C121.983 169.245 126.167 168.058 131.125 168.058C136.128 168.058 140.201 168.796 143.344 170.272C146.531 171.748 148.878 174.155 150.383 177.493Z" fill="#E7A517"/>
</g>
<defs>
<filter id="filter0_i_2146_589" x="112" y="123" width="77.7617" height="85.6914" filterUnits="userSpaceOnUse" color-interpolation-filters="sRGB">
<feFlood flood-opacity="0" result="BackgroundImageFix"/>
<feBlend mode="normal" in="SourceGraphic" in2="BackgroundImageFix" result="shape"/>
<feColorMatrix in="SourceAlpha" type="matrix" values="0 0 0 0 0 0 0 0 0 0 0 0 0 0 0 0 0 0 127 0" result="hardAlpha"/>
<feOffset dy="4"/>
<feGaussianBlur stdDeviation="2"/>
<feComposite in2="hardAlpha" operator="arithmetic" k2="-1" k3="1"/>
<feColorMatrix type="matrix" values="0 0 0 0 0 0 0 0 0 0 0 0 0 0 0 0 0 0 0.25 0"/>
<feBlend mode="normal" in2="shape" result="effect1_innerShadow_2146_589"/>
</filter>
</defs>
</svg>
