<svg width="300" height="300" viewBox="0 0 300 300" fill="none" xmlns="http://www.w3.org/2000/svg">
<path d="M298.606 150.447C298.606 155.938 298.304 161.359 297.716 166.695C296.355 179.031 292.265 182.942 289.232 202.143C286.199 221.345 278.656 225.416 271.309 235.709C264.564 245.158 265.85 254.46 247.983 261.414C230.115 268.368 211.096 286.987 188.922 292.976C176.43 296.35 176.018 303.325 149.714 298.15C123.41 292.976 76.7569 279.233 76.7569 279.233C76.7569 279.233 53.6779 264.139 44.0006 254.46C34.6099 245.068 36.1799 240.054 19.8911 222.822C3.6023 205.59 2.26948 171.126 2.26948 171.126C2.26948 171.126 -1.65966 166.202 0.821878 150.447C3.30341 134.692 3.6023 121.891 3.6023 121.891C3.6023 121.891 11.7406 67.7334 40.5436 50.0091C69.3466 32.2847 67.699 25.8073 84.2015 17.7731C103.971 8.14844 123.906 -6.01254 149.714 2.74404C175.522 11.5006 184.534 5.83351 200.337 11.5006C213.811 16.3324 213.242 23.9148 237.727 31.3C262.213 38.6851 264.494 54.713 274.287 69.5178C283.737 83.8037 285.96 102.69 294.765 116.968C303.569 131.246 298.606 138.932 298.606 150.447Z" fill="#FBDAB1"/>
<path d="M275.602 150.153C275.602 154.656 275.336 159.101 274.818 163.476C273.62 173.592 270.021 176.799 267.352 192.544C264.683 208.289 258.046 211.628 251.58 220.068C245.645 227.816 246.776 235.444 231.053 241.146C215.33 246.848 198.593 262.116 179.08 267.027C168.087 269.793 167.724 275.513 144.577 271.27C121.429 267.027 80.3743 255.758 80.3743 255.758C80.3743 255.758 60.0648 243.38 51.5488 235.444C43.2849 227.742 44.6666 223.631 30.3324 209.5C15.9983 195.37 14.8254 167.11 14.8254 167.11C14.8254 167.11 11.3677 163.072 13.5515 150.153C15.7353 137.234 15.9983 126.737 15.9983 126.737C15.9983 126.737 23.16 82.328 48.5066 67.794C73.8532 53.2601 72.4034 47.9486 86.9255 41.3606C104.323 33.4683 121.865 21.8563 144.577 29.0367C167.288 36.2171 175.218 31.5701 189.125 36.2171C200.982 40.1792 200.481 46.3968 222.028 52.4526C243.575 58.5084 245.583 71.6513 254.201 83.7912C262.517 95.5056 264.473 110.992 272.221 122.7C279.969 134.408 275.602 140.711 275.602 150.153Z" fill="#FFDFB7"/>
<path d="M221.015 150.07C221.015 153.547 220.839 156.981 220.496 160.36C219.702 168.173 217.316 170.65 215.547 182.811C213.777 194.972 209.378 197.55 205.092 204.069C201.157 210.053 201.907 215.945 191.485 220.349C181.062 224.753 169.968 236.545 157.033 240.338C149.746 242.475 149.505 246.893 134.161 243.615C118.817 240.338 91.6031 231.634 91.6031 231.634C91.6031 231.634 78.1404 222.074 72.4953 215.945C67.0173 209.996 67.9332 206.821 58.4314 195.907C48.9296 184.993 48.1521 163.166 48.1521 163.166C48.1521 163.166 45.8601 160.048 47.3077 150.07C48.7552 140.092 48.9296 131.984 48.9296 131.984C48.9296 131.984 53.677 97.6845 70.4787 86.459C87.2804 75.2336 86.3193 71.1312 95.9458 66.0429C107.478 59.9473 119.107 50.9787 134.161 56.5245C149.216 62.0704 154.473 58.4812 163.692 62.0704C171.551 65.1305 171.219 69.9327 185.502 74.6099C199.786 79.2872 201.116 89.4382 206.829 98.8145C212.342 107.862 213.638 119.824 218.774 128.866C223.91 137.909 221.015 142.777 221.015 150.07Z" fill="#FFE2BE"/>
<path d="M199.215 157.98C199.215 160.36 199.082 162.709 198.823 165.021C198.224 170.367 196.425 172.061 195.09 180.382C193.756 188.703 190.437 190.467 187.204 194.927C184.236 199.022 184.802 203.053 176.941 206.066C169.079 209.079 160.711 217.148 150.954 219.743C145.457 221.205 145.276 224.228 133.702 221.985C122.129 219.743 101.601 213.788 101.601 213.788C101.601 213.788 91.4465 207.247 87.1885 203.053C83.0566 198.983 83.7474 196.81 76.5803 189.343C69.4133 181.875 68.8268 166.941 68.8268 166.941C68.8268 166.941 67.098 164.808 68.1899 157.98C69.2817 151.153 69.4133 145.606 69.4133 145.606C69.4133 145.606 72.9941 122.138 85.6674 114.457C98.3407 106.777 97.6158 103.97 104.877 100.488C113.575 96.3176 122.347 90.1812 133.702 93.9757C145.058 97.7702 149.023 95.3145 155.977 97.7702C161.905 99.864 161.655 103.15 172.428 106.35C183.202 109.55 184.205 116.496 188.515 122.911C192.673 129.102 193.651 137.286 197.525 143.473C201.399 149.66 199.215 152.991 199.215 157.98Z" fill="#FCE4C6"/>
<path d="M235.828 193.787C240.328 193.787 244.189 180.285 243.828 175.287M198.828 57.2866C203.328 57.2866 224.189 44.2846 223.828 39.2866M207.328 87.7866C211.828 87.7866 224.189 64.7846 223.828 59.7866M252.328 113.787C256.828 113.787 281.189 106.785 280.828 101.787M235.828 160.787C240.328 160.787 260.689 155.285 260.328 150.287M260.328 178.787C264.828 178.787 278.689 170.285 278.328 165.287M182.328 178.787C186.828 178.787 199.189 160.785 198.828 155.787M198.828 193.787C203.328 193.787 230.189 171.285 229.828 166.287M186.328 124.787C190.828 124.787 227.189 106.785 226.828 101.787M157.828 98.2866C162.328 98.2866 189.189 78.2846 188.828 73.2866M210.828 131.787C215.328 131.787 218.189 125.285 217.828 120.287M196.828 107.787C197.189 112.785 183.328 107.787 178.828 107.787C183.328 107.787 191.189 103.285 190.828 98.2866" stroke="black"/>
<path d="M165.828 213.287C170.328 213.287 174.189 199.785 173.828 194.787M128.828 76.7866C133.328 76.7866 154.189 63.7846 153.828 58.7866M137.328 107.287C141.828 107.287 154.189 84.2846 153.828 79.2866M182.328 133.287C186.828 133.287 211.189 126.285 210.828 121.287M165.828 180.287C170.328 180.287 190.689 174.785 190.328 169.787M190.328 198.287C194.828 198.287 208.689 189.785 208.328 184.787M112.328 198.287C116.828 198.287 129.189 180.285 128.828 175.287M128.828 213.287C133.328 213.287 160.189 190.785 159.828 185.787M116.328 144.287C120.828 144.287 157.189 126.285 156.828 121.287M87.8282 117.787C92.3282 117.787 119.189 97.7846 118.828 92.7866M140.828 151.287C145.328 151.287 148.189 144.785 147.828 139.787M126.828 127.287C127.189 132.285 113.328 127.287 108.828 127.287C113.328 127.287 121.189 122.785 120.828 117.787" stroke="black"/>
<path d="M134.828 278.287C139.328 278.287 143.189 264.785 142.828 259.787M97.8282 141.787C102.328 141.787 123.189 128.785 122.828 123.787M106.328 172.287C110.828 172.287 123.189 149.285 122.828 144.287M151.328 198.287C155.828 198.287 180.189 191.285 179.828 186.287M134.828 245.287C139.328 245.287 159.689 239.785 159.328 234.787M159.328 263.287C163.828 263.287 177.689 254.785 177.328 249.787M81.3282 263.287C85.8282 263.287 98.1891 245.285 97.8282 240.287M97.8282 278.287C102.328 278.287 129.189 255.785 128.828 250.787M85.3282 209.287C89.8282 209.287 126.189 191.285 125.828 186.287M56.8282 182.787C61.3282 182.787 88.1891 162.785 87.8282 157.787M109.828 216.287C114.328 216.287 117.189 209.785 116.828 204.787M95.8282 192.287C96.1891 197.285 82.3282 192.287 77.8282 192.287C82.3282 192.287 90.1891 187.785 89.8282 182.787" stroke="black"/>
<path d="M83.8282 222.287C88.3282 222.287 92.1891 208.785 91.8282 203.787M46.8282 85.7866C51.3282 85.7866 72.1891 72.7846 71.8282 67.7866M55.3282 116.287C59.8282 116.287 72.1891 93.2846 71.8282 88.2866M100.328 142.287C104.828 142.287 129.189 135.285 128.828 130.287M83.8282 189.287C88.3282 189.287 108.689 183.785 108.328 178.787M108.328 207.287C112.828 207.287 126.689 198.785 126.328 193.787M30.3282 207.287C34.8282 207.287 47.1891 189.285 46.8282 184.287M46.8282 222.287C51.3282 222.287 78.1891 199.785 77.8282 194.787M34.3282 153.287C38.8282 153.287 75.1891 135.285 74.8282 130.287M5.82825 126.787C10.3282 126.787 37.1891 106.785 36.8282 101.787M58.8282 160.287C63.3282 160.287 66.1891 153.785 65.8282 148.787M44.8282 136.287C45.1891 141.285 31.3282 136.287 26.8282 136.287C31.3282 136.287 39.1891 131.785 38.8282 126.787" stroke="black"/>
<path d="M152.826 107.787C157.326 107.787 161.186 98.5231 160.825 95.0941M115.827 14.1361C120.327 14.1361 141.187 5.21566 140.826 1.78662M124.327 35.0617C128.827 35.0617 141.187 19.2804 140.826 15.8513M169.325 52.8999C173.825 52.8999 198.185 48.0959 197.824 44.6669M152.826 85.1458C157.326 85.1458 177.686 81.371 177.325 77.942M177.325 97.4954C181.825 97.4954 195.685 91.6623 195.324 88.2332M99.3275 97.4954C103.827 97.4954 116.188 85.1445 115.827 81.7154M115.827 107.787C120.327 107.787 147.187 92.3483 146.826 88.9193M103.327 60.4468C107.827 60.4468 144.187 48.0959 143.826 44.6669M74.8282 42.2656C79.3281 42.2656 106.188 28.5425 105.827 25.1135M127.827 65.2494C132.326 65.2494 135.187 60.7885 134.826 57.3594M113.827 48.7834C114.188 52.2124 100.327 48.7834 95.8276 48.7834C100.327 48.7834 108.188 45.6946 107.827 42.2656" stroke="black"/>
<path d="M255.217 239.787C257.778 239.787 259.975 222.134 259.77 215.599M234.161 61.3206C236.722 61.3206 248.593 44.3212 248.388 37.7866M238.998 101.198C241.559 101.198 248.593 71.1238 248.388 64.5892M264.607 135.191C267.168 135.191 281.031 126.036 280.826 119.502M255.217 196.641C257.778 196.641 269.365 189.447 269.16 182.913M269.16 220.175C271.721 220.175 279.609 209.059 279.403 202.524M224.771 220.175C227.332 220.175 234.366 196.638 234.161 190.104M234.161 239.787C236.722 239.787 252.008 210.367 251.803 203.832M227.047 149.573C229.608 149.573 250.301 126.036 250.095 119.502M210.828 114.926C213.389 114.926 228.675 88.7743 228.47 82.2397M240.99 158.725C243.551 158.725 245.179 150.224 244.973 143.69M233.023 127.346C233.228 133.881 225.34 127.346 222.779 127.346C225.34 127.346 229.813 121.46 229.608 114.926" stroke="black"/>
<path d="M214.729 270.787C217.839 270.787 220.507 264.669 220.257 262.405M189.161 208.942C192.27 208.942 206.686 203.051 206.437 200.787M195.034 222.761C198.144 222.761 206.686 212.339 206.437 210.075M226.131 234.541C229.241 234.541 246.075 231.368 245.826 229.104M214.729 255.835C217.839 255.835 231.909 253.342 231.659 251.078M231.659 263.991C234.769 263.991 244.347 260.138 244.098 257.874M177.759 263.991C180.868 263.991 189.41 255.834 189.161 253.57M189.161 270.787C192.27 270.787 210.832 260.592 210.583 258.327M180.523 239.524C183.632 239.524 208.759 231.368 208.51 229.104M160.828 227.518C163.938 227.518 182.5 218.456 182.25 216.191M197.453 242.696C200.563 242.696 202.54 239.75 202.29 237.486M187.779 231.822C188.028 234.087 178.45 231.822 175.34 231.822C178.45 231.822 183.882 229.782 183.632 227.518" stroke="black"/>
</svg>
