<svg width="454" height="101" viewBox="0 0 454 101" fill="none" xmlns="http://www.w3.org/2000/svg">
<path d="M42.1562 71.1016C43.7891 70.8047 44.6055 69.9883 44.6055 68.6523C44.6055 67.2669 44.1602 65.7331 43.2695 64.0508C42.4284 62.319 41.1667 60.6862 39.4844 59.1523C35.0807 55.194 29.1185 53.2148 21.5977 53.2148C17.8867 53.2148 14.4232 53.8333 11.207 55.0703C7.79297 53.3385 5.07161 50.5924 3.04297 46.832C1.01432 43.0716 0 39.0143 0 34.6602C0 23.2799 4.75 14.4974 14.25 8.3125C22.4141 3.01823 32.4831 0.371094 44.457 0.371094C53.3633 0.371094 60.8594 1.33594 66.9453 3.26562C73.0312 5.14583 78.0039 7.57031 81.8633 10.5391C83.0013 13.8047 83.5703 17.194 83.5703 20.707C83.5703 24.2201 83.1003 27.4115 82.1602 30.2812C81.2201 33.151 79.8594 35.4518 78.0781 37.1836C76.3958 35.9466 73.3529 34.6849 68.9492 33.3984C64.5456 32.112 60.5378 31.4688 56.9258 31.4688C53.3138 31.4688 50.8893 31.6914 49.6523 32.1367C48.4648 32.582 47.8711 33.2747 47.8711 34.2148C47.8711 34.6602 47.9453 35.0807 48.0938 35.4766C49.8255 35.0312 52.0521 34.8086 54.7734 34.8086C64.4219 34.8086 72.2891 37.0846 78.375 41.6367C85.5495 47.0794 89.1367 55.2435 89.1367 66.1289C89.1367 75.7279 85.2526 83.694 77.4844 90.0273C69.0729 96.806 57.7669 100.195 43.5664 100.195C35.7487 100.195 28.9701 99.6016 23.2305 98.4141C17.4909 97.276 11.8997 95.2474 6.45703 92.3281C2.74609 86.9349 0.890625 81.4674 0.890625 75.9258C0.890625 70.3346 2.79557 65.7083 6.60547 62.0469C10.4154 58.3854 15.0911 56.5547 20.6328 56.5547C26.224 56.5547 30.776 57.6927 34.2891 59.9688C37.8516 62.2448 40.474 65.9557 42.1562 71.1016Z" fill="#303B3F"/>
<path d="M136.266 93.2188V81.8633C125.875 81.2201 120.68 79.6367 120.68 77.1133C120.68 76.4206 120.878 75.8763 121.273 75.4805C122.461 76.0247 124.762 76.668 128.176 77.4102C131.639 78.1029 134.88 78.4492 137.898 78.4492C151.159 78.4492 161.525 75.2331 168.996 68.8008C176.764 62.0221 180.648 52.5469 180.648 40.375C180.648 28.1536 176.344 18.431 167.734 11.207C159.125 3.98307 147.572 0.371094 133.074 0.371094C122.585 0.371094 113.258 1.75651 105.094 4.52734C101.284 5.8138 98.2904 7.2487 96.1133 8.83203C93.9857 10.4154 92.9219 11.9987 92.9219 13.582V84.0898C92.9219 89.2357 95.1484 93.1693 99.6016 95.8906C103.51 98.2656 108.533 99.4531 114.668 99.4531C118.973 99.4531 123.104 98.8841 127.062 97.7461C131.021 96.5586 134.089 95.0495 136.266 93.2188Z" fill="#303B3F"/>
<path d="M208.406 95.0742C215.779 98.6862 223.868 100.492 232.676 100.492C246.876 100.492 258.207 96.5091 266.668 88.543C280.283 78.8867 278.349 79.5998 289.946 88.543C292.795 91.1525 295.964 93.3296 299.453 95.0742C306.826 98.6862 314.915 100.492 323.723 100.492C337.923 100.492 349.254 96.5091 357.715 88.543C367.017 79.7357 371.668 66.9701 371.668 50.2461C371.668 35.2044 367.314 23.082 358.605 13.8789C349.947 4.6263 338.171 0 323.277 0C309.572 0 298.365 4.03255 289.656 12.0977C276.283 22.9873 278.104 22.6545 265.793 12.0977C257.323 4.03255 246.135 0 232.23 0C218.525 0 207.318 4.03255 198.609 12.0977C188.812 21.2513 183.914 33.9674 183.914 50.2461C183.914 61.4779 186.165 70.8542 190.668 78.375C195.171 85.8464 201.083 91.4128 208.406 95.0742Z" fill="#19C218"/>
<path d="M393.969 98.1914C388.477 98.1914 384.221 96.7318 381.203 93.8125C378.234 90.8932 376.75 86.4896 376.75 80.6016V8.01562C379.372 5.78906 382.564 4.08203 386.324 2.89453C390.134 1.65755 394.068 1.03906 398.125 1.03906C404.112 1.03906 409.184 2.52344 413.34 5.49219C417.842 8.85677 420.094 13.5078 420.094 19.4453V60.043C417.323 60.2904 414.602 61.082 411.93 62.418C409.258 63.7044 407.922 65.0404 407.922 66.4258C407.922 67.2669 408.392 67.9844 409.332 68.5781C414.23 64.4714 421.504 62.418 431.152 62.418H448.742C452.008 68.1576 453.641 74.0208 453.641 80.0078C453.641 82.9766 453.121 86.2669 452.082 89.8789C451.043 93.4909 449.658 96.2617 447.926 98.1914H393.969Z" fill="#303B3F"/>
</svg>
