<svg width="1981" height="1087" viewBox="0 0 1981 1087" fill="none" xmlns="http://www.w3.org/2000/svg">
<path d="M947 76H119.657C118.596 76 117.579 75.5786 116.828 74.8284L63.7756 21.7756C62.2343 20.2343 59.7427 20.2108 58.1726 21.7227L9.93616 68.1726C8.3236 69.7254 8.29933 72.2993 9.8823 73.8823L61 125L62.8284 126.828C63.5786 127.579 64 128.596 64 129.657V135V957.343C64 958.404 63.5786 959.421 62.8284 960.172L11.8823 1011.12C10.2993 1012.7 10.3236 1015.27 11.9362 1016.83L60.1726 1063.28C61.7427 1064.79 64.2343 1064.77 65.7756 1063.22L116.828 1012.17C117.579 1011.42 118.596 1011 119.657 1011H947C949.209 1011 951 1012.79 951 1015V1047C951 1049.21 952.791 1051 955 1051H1023C1025.21 1051 1027 1049.21 1027 1047V1015C1027 1012.79 1028.79 1011 1031 1011H1861.34C1862.4 1011 1863.42 1011.42 1864.17 1012.17L1913.12 1061.12C1914.7 1062.7 1917.27 1062.68 1918.83 1061.06L1965.28 1012.83C1966.79 1011.26 1966.77 1008.77 1965.22 1007.22L1917.17 959.172C1916.42 958.421 1916 957.404 1916 956.343V130.657C1916 129.596 1916.42 128.579 1917.17 127.828L1965.17 79.8284C1966.73 78.2663 1966.73 75.7337 1965.17 74.1716L1917.83 26.8284C1916.27 25.2663 1913.73 25.2663 1912.17 26.8284L1864.17 74.8284C1863.42 75.5786 1862.4 76 1861.34 76L1031 76C1028.79 76 1027 74.2091 1027 72V40C1027 37.7909 1025.21 36 1023 36H955C952.791 36 951 37.7909 951 40V72C951 74.2091 949.209 76 947 76Z" fill="#71BC78"/>
<path d="M875.667 569.798C875.719 577.767 873.889 584.517 870.175 590.049C866.519 595.522 861.478 599.686 855.051 602.541C848.682 605.337 841.426 606.761 833.281 606.814C825.196 606.867 817.892 605.538 811.37 602.826C804.907 600.056 799.753 595.959 795.909 590.535C792.123 585.051 790.204 578.326 790.152 570.357C790.117 565.025 791.14 560.184 793.221 555.835C795.36 551.485 798.324 547.744 802.113 544.614C805.9 541.425 810.396 538.994 815.6 537.319C820.804 535.586 826.482 534.699 832.634 534.659C840.837 534.605 848.171 536.051 854.636 538.997C861.158 541.884 866.283 545.982 870.009 551.29C873.735 556.539 875.621 562.708 875.667 569.798ZM852.28 568.545C852.253 564.443 851.41 560.904 849.749 557.926C848.148 554.89 845.876 552.561 842.936 550.939C839.996 549.318 836.592 548.52 832.725 548.545C828.799 548.571 825.377 549.413 822.458 551.073C819.598 552.733 817.357 555.091 815.736 558.148C814.174 561.147 813.406 564.697 813.433 568.799C813.46 572.959 814.275 576.528 815.876 579.505C817.536 582.424 819.836 584.665 822.776 586.228C825.716 587.791 829.178 588.559 833.162 588.533C837.146 588.507 840.569 587.694 843.429 586.093C846.29 584.492 848.473 582.222 849.977 579.283C851.539 576.284 852.307 572.705 852.28 568.545ZM872.468 510.579C872.51 517.025 870.848 522.778 867.483 527.839C864.117 532.842 859.426 536.769 853.409 539.621C847.451 542.472 840.605 543.923 832.871 543.974C825.137 544.024 818.213 542.663 812.101 539.891C806.048 537.118 801.277 533.252 797.787 528.294C794.356 523.278 792.619 517.547 792.577 511.102C792.527 503.485 794.213 497.028 797.636 491.732C801.058 486.378 805.748 482.304 811.707 479.511C817.724 476.718 824.57 475.296 832.246 475.246C840.039 475.195 846.961 476.527 853.015 479.241C859.068 481.955 863.811 485.968 867.244 491.277C870.677 496.528 872.418 502.962 872.468 510.579ZM849.271 511.698C849.248 508.065 848.553 504.906 847.188 502.219C845.822 499.474 843.875 497.348 841.345 495.841C838.875 494.334 835.881 493.592 832.366 493.615C828.967 493.637 826.043 494.388 823.591 495.869C821.14 497.35 819.25 499.472 817.92 502.235C816.59 504.939 815.937 508.166 815.962 511.916C815.986 515.607 816.681 518.825 818.046 521.57C819.412 524.315 821.33 526.471 823.802 528.037C826.331 529.543 829.324 530.286 832.781 530.263C836.238 530.24 839.192 529.459 841.643 527.92C844.094 526.322 845.984 524.141 847.313 521.379C848.643 518.616 849.296 515.389 849.271 511.698ZM980.364 585.813L980.484 604.094L893.825 604.661L893.723 589.016L935.001 543.834C939.305 538.883 942.704 534.584 945.2 530.935C947.696 527.285 949.461 523.993 950.497 521.056C951.591 518.06 952.129 515.215 952.111 512.52C952.085 508.594 951.36 505.171 949.935 502.251C948.509 499.272 946.443 496.971 943.737 495.348C941.09 493.724 937.832 492.925 933.965 492.951C929.688 492.979 926.032 493.999 922.999 496.011C920.023 497.964 917.756 500.674 916.196 504.141C914.695 507.608 913.96 511.568 913.989 516.021L890.698 516.173C890.649 508.615 892.361 501.719 895.836 495.485C899.311 489.193 904.317 484.15 910.855 480.357C917.393 476.564 925.173 474.638 934.197 474.58C942.986 474.522 950.436 475.938 956.549 478.828C962.662 481.659 967.317 485.73 970.516 491.042C973.715 496.353 975.338 502.7 975.387 510.083C975.413 514.184 974.766 518.231 973.444 522.224C972.123 526.217 970.245 530.185 967.809 534.127C965.432 538.01 962.587 541.954 959.273 545.96C955.959 549.966 952.265 554.063 948.191 558.25L923.412 586.186L980.364 585.813Z" fill="#303B3F"/>
<path d="M1081.77 475.461L1081.86 488.117L1032.34 603.755L1007.82 603.916L1057.37 493.902L992.335 494.327L992.215 476.046L1081.77 475.461ZM1116.86 585.185L1118.53 585.174C1126.09 585.125 1132.47 584.116 1137.67 582.148C1142.93 580.18 1147.16 577.428 1150.36 573.891C1153.62 570.296 1155.96 566.032 1157.39 561.101C1158.88 556.111 1159.61 550.598 1159.57 544.563L1159.42 521.36C1159.39 516.439 1158.86 512.135 1157.84 508.451C1156.82 504.707 1155.39 501.582 1153.56 499.074C1151.79 496.566 1149.69 494.705 1147.28 493.49C1144.87 492.217 1142.29 491.589 1139.54 491.607C1136.49 491.627 1133.8 492.348 1131.47 493.769C1129.13 495.191 1127.15 497.137 1125.53 499.609C1123.96 502.021 1122.75 504.813 1121.89 507.982C1121.09 511.152 1120.7 514.494 1120.72 518.01C1120.75 521.408 1121.15 524.658 1121.93 527.758C1122.77 530.858 1123.99 533.604 1125.59 535.996C1127.24 538.387 1129.31 540.278 1131.78 541.668C1134.25 543 1137.12 543.655 1140.4 543.634C1143.51 543.613 1146.32 543.009 1148.83 541.821C1151.4 540.573 1153.62 538.948 1155.48 536.943C1157.34 534.88 1158.76 532.615 1159.74 530.148C1160.78 527.621 1161.35 525.069 1161.45 522.49L1169.64 525.952C1169.67 530.229 1168.79 534.454 1167 538.626C1165.27 542.797 1162.81 546.593 1159.61 550.012C1156.46 553.373 1152.79 556.092 1148.59 558.17C1144.38 560.19 1139.85 561.216 1134.98 561.248C1128.95 561.287 1123.61 560.209 1118.96 558.012C1114.32 555.816 1110.4 552.765 1107.22 548.86C1104.08 544.896 1101.71 540.342 1100.09 535.196C1098.48 529.991 1097.65 524.43 1097.61 518.512C1097.57 512.36 1098.5 506.582 1100.4 501.179C1102.3 495.718 1105.05 490.924 1108.66 486.799C1112.32 482.615 1116.75 479.334 1121.95 476.956C1127.15 474.52 1133 473.28 1139.5 473.238C1146.24 473.194 1152.26 474.473 1157.55 477.075C1162.84 479.677 1167.34 483.31 1171.07 487.973C1174.79 492.578 1177.64 498.038 1179.61 504.353C1181.64 510.668 1182.69 517.575 1182.74 525.075L1182.79 533.249C1182.84 541.159 1182.1 548.664 1180.56 555.764C1179.03 562.864 1176.64 569.354 1173.39 575.235C1170.15 581.116 1166 586.211 1160.93 590.522C1155.92 594.832 1149.9 598.182 1142.89 600.572C1135.93 602.902 1127.97 604.097 1119 604.156L1116.98 604.169L1116.86 585.185Z" fill="#EEB312"/>
<rect x="951" width="76" height="76" rx="38" fill="url(#paint0_radial_2130_86)"/>
<rect x="951" y="1011" width="76" height="76" rx="38" fill="url(#paint1_radial_2130_86)"/>
<circle cx="1943" cy="49" r="38" fill="url(#paint2_radial_2130_86)"/>
<circle cx="1943" cy="1038" r="38" fill="url(#paint3_radial_2130_86)"/>
<circle cx="38" cy="49" r="38" fill="url(#paint4_radial_2130_86)"/>
<circle cx="38" cy="1038" r="38" fill="url(#paint5_radial_2130_86)"/>
<path d="M95.8284 53.8284C93.3086 51.3086 95.0932 47 98.6569 47H947C949.209 47 951 48.7909 951 51V72C951 74.2091 949.209 76 947 76H119.657C118.596 76 117.579 75.5786 116.828 74.8284L95.8284 53.8284Z" fill="#71BC78"/>
<path d="M1885.14 53.8333C1887.67 51.3155 1885.89 47 1882.32 47H1031C1028.79 47 1027 48.7909 1027 51V72C1027 74.2091 1028.79 76 1031 76H1861.25C1862.3 76 1863.32 75.5805 1864.07 74.8333L1885.14 53.8333Z" fill="#71BC78"/>
<path d="M1885.14 1033.17C1887.67 1035.68 1885.89 1040 1882.32 1040H1031C1028.79 1040 1027 1038.21 1027 1036V1015C1027 1012.79 1028.79 1011 1031 1011H1861.25C1862.3 1011 1863.32 1011.42 1864.07 1012.17L1885.14 1033.17Z" fill="#71BC78"/>
<path d="M96.8284 1032.17C94.3086 1034.69 96.0932 1039 99.6569 1039H947C949.209 1039 951 1037.21 951 1035V1015C951 1012.79 949.209 1011 947 1011H119.657C118.596 1011 117.579 1011.42 116.828 1012.17L96.8284 1032.17Z" fill="#71BC78"/>
<path d="M1916 130.657C1916 129.596 1916.42 128.578 1917.17 127.828L1969.17 75.8284C1971.69 73.3086 1976 75.0932 1976 78.6568V1008.34C1976 1011.91 1971.69 1013.69 1969.17 1011.17L1917.17 959.172C1916.42 958.421 1916 957.404 1916 956.343V130.657Z" fill="#71BC78"/>
<path d="M65 130.657C65 129.596 64.5786 128.578 63.8284 127.828L11.8284 75.8284C9.30856 73.3086 5 75.0932 5 78.6568V1008.34C5 1011.91 9.30857 1013.69 11.8284 1011.17L63.8284 959.172C64.5786 958.421 65 957.404 65 956.343V130.657Z" fill="#71BC78"/>
<path d="M95.8284 53.8284C93.3086 51.3086 95.0932 47 98.6569 47H947C949.209 47 951 48.7909 951 51V72C951 74.2091 949.209 76 947 76H119.657C118.596 76 117.579 75.5786 116.828 74.8284L95.8284 53.8284Z" fill="black" fill-opacity="0.2"/>
<path d="M1885.14 53.8333C1887.67 51.3155 1885.89 47 1882.32 47H1031C1028.79 47 1027 48.7909 1027 51V72C1027 74.2091 1028.79 76 1031 76H1861.25C1862.3 76 1863.32 75.5805 1864.07 74.8333L1885.14 53.8333Z" fill="black" fill-opacity="0.2"/>
<path d="M1885.14 1033.17C1887.67 1035.68 1885.89 1040 1882.32 1040H1031C1028.79 1040 1027 1038.21 1027 1036V1015C1027 1012.79 1028.79 1011 1031 1011H1861.25C1862.3 1011 1863.32 1011.42 1864.07 1012.17L1885.14 1033.17Z" fill="black" fill-opacity="0.2"/>
<path d="M96.8284 1032.17C94.3086 1034.69 96.0932 1039 99.6569 1039H947C949.209 1039 951 1037.21 951 1035V1015C951 1012.79 949.209 1011 947 1011H119.657C118.596 1011 117.579 1011.42 116.828 1012.17L96.8284 1032.17Z" fill="black" fill-opacity="0.2"/>
<path d="M1916 130.657C1916 129.596 1916.42 128.578 1917.17 127.828L1969.17 75.8284C1971.69 73.3086 1976 75.0932 1976 78.6568V1008.34C1976 1011.91 1971.69 1013.69 1969.17 1011.17L1917.17 959.172C1916.42 958.421 1916 957.404 1916 956.343V130.657Z" fill="black" fill-opacity="0.2"/>
<path d="M65 130.657C65 129.596 64.5786 128.578 63.8284 127.828L11.8284 75.8284C9.30856 73.3086 5 75.0932 5 78.6568V1008.34C5 1011.91 9.30857 1013.69 11.8284 1011.17L63.8284 959.172C64.5786 958.421 65 957.404 65 956.343V130.657Z" fill="black" fill-opacity="0.2"/>
<defs>
<radialGradient id="paint0_radial_2130_86" cx="0" cy="0" r="1" gradientUnits="userSpaceOnUse" gradientTransform="translate(989 38) rotate(90) scale(38)">
<stop offset="0.775"/>
<stop offset="1" stop-color="#71BC78"/>
</radialGradient>
<radialGradient id="paint1_radial_2130_86" cx="0" cy="0" r="1" gradientUnits="userSpaceOnUse" gradientTransform="translate(989 1049) rotate(90) scale(38)">
<stop offset="0.775"/>
<stop offset="1" stop-color="#71BC78"/>
</radialGradient>
<radialGradient id="paint2_radial_2130_86" cx="0" cy="0" r="1" gradientUnits="userSpaceOnUse" gradientTransform="translate(1943 49) rotate(90) scale(38)">
<stop offset="0.775"/>
<stop offset="1" stop-color="#71BC78"/>
</radialGradient>
<radialGradient id="paint3_radial_2130_86" cx="0" cy="0" r="1" gradientUnits="userSpaceOnUse" gradientTransform="translate(1943 1038) rotate(90) scale(38)">
<stop offset="0.775"/>
<stop offset="1" stop-color="#71BC78"/>
</radialGradient>
<radialGradient id="paint4_radial_2130_86" cx="0" cy="0" r="1" gradientUnits="userSpaceOnUse" gradientTransform="translate(38 49) rotate(90) scale(38)">
<stop offset="0.775"/>
<stop offset="1" stop-color="#71BC78"/>
</radialGradient>
<radialGradient id="paint5_radial_2130_86" cx="0" cy="0" r="1" gradientUnits="userSpaceOnUse" gradientTransform="translate(38 1038) rotate(90) scale(38)">
<stop offset="0.775"/>
<stop offset="1" stop-color="#71BC78"/>
</radialGradient>
</defs>
</svg>
