<svg width="2080" height="1137" viewBox="0 0 2080 1137" fill="none" xmlns="http://www.w3.org/2000/svg">
<path d="M0 68C0 30.4447 30.4446 0 68 0H1040V1137H68C30.4446 1137 0 1106.56 0 1069V68Z" fill="#643E30"/>
<rect x="68" y="68" width="106" height="84" rx="28" fill="black"/>
<rect x="948" y="68" width="92" height="84" fill="black"/>
<rect x="948" y="985" width="92" height="84" fill="black"/>
<rect x="68" y="985" width="106" height="84" rx="28" fill="black"/>
<rect x="106" y="106" width="934" height="925" fill="#71BC78"/>
<circle cx="109" cy="109" r="38" fill="#71BC78"/>
<circle cx="110" cy="110" r="38" fill="#71BC78"/>
<circle cx="111" cy="111" r="38" fill="#71BC78"/>
<circle cx="112" cy="112" r="38" fill="#71BC78"/>
<circle cx="113" cy="113" r="38" fill="#71BC78"/>
<circle cx="114" cy="114" r="38" fill="#71BC78"/>
<circle cx="115" cy="115" r="38" fill="#71BC78"/>
<circle cx="116" cy="116" r="38" fill="#71BC78"/>
<circle cx="117" cy="117" r="38" fill="#71BC78"/>
<circle cx="118" cy="118" r="38" fill="#71BC78"/>
<circle cx="119" cy="119" r="38" fill="#71BC78"/>
<circle cx="120" cy="120" r="38" fill="#71BC78"/>
<circle cx="121" cy="121" r="38" fill="#71BC78"/>
<circle cx="122" cy="122" r="38" fill="#71BC78"/>
<circle cx="123" cy="123" r="38" fill="#71BC78"/>
<circle cx="124" cy="124" r="38" fill="#71BC78"/>
<circle cx="125" cy="125" r="38" fill="#71BC78"/>
<circle cx="126" cy="126" r="38" fill="#71BC78"/>
<circle cx="127" cy="127" r="38" fill="#71BC78"/>
<circle cx="128" cy="128" r="38" fill="#71BC78"/>
<circle cx="129" cy="129" r="38" fill="#71BC78"/>
<circle cx="130" cy="130" r="38" fill="#71BC78"/>
<circle cx="131" cy="131" r="38" fill="#71BC78"/>
<circle cx="132" cy="132" r="38" fill="#71BC78"/>
<path d="M1002 1031C1002 1051.99 1019.01 1069 1040 1069V1069V993H1002V1031Z" fill="#71BC78"/>
<path d="M1002 106C1002 85.0132 1019.01 68 1040 68V68V144H1002V106Z" fill="#71BC78"/>
<circle cx="106" cy="106" r="38" fill="url(#paint0_radial_2130_379)"/>
<circle cx="38" cy="38" r="38" transform="matrix(1 0 0 -1 69 1068)" fill="#71BC78"/>
<circle cx="38" cy="38" r="38" transform="matrix(1 0 0 -1 70 1067)" fill="#71BC78"/>
<circle cx="38" cy="38" r="38" transform="matrix(1 0 0 -1 71 1066)" fill="#71BC78"/>
<circle cx="38" cy="38" r="38" transform="matrix(1 0 0 -1 72 1065)" fill="#71BC78"/>
<circle cx="38" cy="38" r="38" transform="matrix(1 0 0 -1 73 1064)" fill="#71BC78"/>
<circle cx="38" cy="38" r="38" transform="matrix(1 0 0 -1 74 1063)" fill="#71BC78"/>
<circle cx="38" cy="38" r="38" transform="matrix(1 0 0 -1 75 1062)" fill="#71BC78"/>
<circle cx="38" cy="38" r="38" transform="matrix(1 0 0 -1 76 1061)" fill="#71BC78"/>
<circle cx="38" cy="38" r="38" transform="matrix(1 0 0 -1 77 1060)" fill="#71BC78"/>
<circle cx="38" cy="38" r="38" transform="matrix(1 0 0 -1 78 1059)" fill="#71BC78"/>
<circle cx="38" cy="38" r="38" transform="matrix(1 0 0 -1 79 1058)" fill="#71BC78"/>
<circle cx="38" cy="38" r="38" transform="matrix(1 0 0 -1 80 1057)" fill="#71BC78"/>
<circle cx="38" cy="38" r="38" transform="matrix(1 0 0 -1 81 1056)" fill="#71BC78"/>
<circle cx="38" cy="38" r="38" transform="matrix(1 0 0 -1 82 1055)" fill="#71BC78"/>
<circle cx="38" cy="38" r="38" transform="matrix(1 0 0 -1 83 1054)" fill="#71BC78"/>
<circle cx="38" cy="38" r="38" transform="matrix(1 0 0 -1 84 1053)" fill="#71BC78"/>
<circle cx="38" cy="38" r="38" transform="matrix(1 0 0 -1 85 1052)" fill="#71BC78"/>
<circle cx="38" cy="38" r="38" transform="matrix(1 0 0 -1 86 1051)" fill="#71BC78"/>
<circle cx="38" cy="38" r="38" transform="matrix(1 0 0 -1 87 1050)" fill="#71BC78"/>
<circle cx="38" cy="38" r="38" transform="matrix(1 0 0 -1 88 1049)" fill="#71BC78"/>
<circle cx="38" cy="38" r="38" transform="matrix(1 0 0 -1 89 1048)" fill="#71BC78"/>
<circle cx="38" cy="38" r="38" transform="matrix(1 0 0 -1 90 1047)" fill="#71BC78"/>
<circle cx="38" cy="38" r="38" transform="matrix(1 0 0 -1 91 1046)" fill="#71BC78"/>
<circle cx="38" cy="38" r="38" transform="matrix(1 0 0 -1 92 1045)" fill="#71BC78"/>
<circle cx="38" cy="38" r="38" transform="matrix(1 0 0 -1 93 1044)" fill="#71BC78"/>
<circle cx="38" cy="38" r="38" transform="matrix(1 0 0 -1 94 1043)" fill="#71BC78"/>
<circle cx="38" cy="38" r="38" transform="matrix(1 0 0 -1 68 1069)" fill="url(#paint1_radial_2130_379)"/>
<path d="M1002 1030.5C1002 1051.76 1019.01 1069 1040 1069V992C1019.01 992 1002 1009.24 1002 1030.5Z" fill="url(#paint2_radial_2130_379)"/>
<path d="M1002 106C1002 126.987 1019.01 144 1040 144V68C1019.01 68 1002 85.0132 1002 106Z" fill="url(#paint3_radial_2130_379)"/>
<g filter="url(#filter0_d_2130_379)">
<path d="M121.778 68H1002V106H159.722L121.778 68Z" fill="#71BC78"/>
</g>
<g filter="url(#filter1_d_2130_379)">
<path d="M121.738 1069H1002V1031H159.722L121.738 1069Z" fill="#71BC78"/>
</g>
<g filter="url(#filter2_d_2130_379)">
<path d="M68 121.756L106 159.78V977.285L68 1015.24V121.756Z" fill="#71BC78"/>
</g>
<path d="M2080 68C2080 30.4447 2049.56 0 2012 0H1040V1137H2012C2049.56 1137 2080 1106.56 2080 1069V68Z" fill="#643E30"/>
<rect width="106" height="84" rx="28" transform="matrix(-1 0 0 1 2012 68)" fill="black"/>
<rect width="92" height="84" transform="matrix(-1 0 0 1 1132 68)" fill="black"/>
<rect width="92" height="84" transform="matrix(-1 0 0 1 1132 985)" fill="black"/>
<rect width="106" height="84" rx="28" transform="matrix(-1 0 0 1 2012 985)" fill="black"/>
<rect width="934" height="925" transform="matrix(-1 0 0 1 1974 106)" fill="#71BC78"/>
<circle cx="38" cy="38" r="38" transform="matrix(-1 0 0 1 2009 71)" fill="#71BC78"/>
<circle cx="38" cy="38" r="38" transform="matrix(-1 0 0 1 2008 72)" fill="#71BC78"/>
<circle cx="38" cy="38" r="38" transform="matrix(-1 0 0 1 2007 73)" fill="#71BC78"/>
<circle cx="38" cy="38" r="38" transform="matrix(-1 0 0 1 2006 74)" fill="#71BC78"/>
<circle cx="38" cy="38" r="38" transform="matrix(-1 0 0 1 2005 75)" fill="#71BC78"/>
<circle cx="38" cy="38" r="38" transform="matrix(-1 0 0 1 2004 76)" fill="#71BC78"/>
<circle cx="38" cy="38" r="38" transform="matrix(-1 0 0 1 2003 77)" fill="#71BC78"/>
<circle cx="38" cy="38" r="38" transform="matrix(-1 0 0 1 2002 78)" fill="#71BC78"/>
<circle cx="38" cy="38" r="38" transform="matrix(-1 0 0 1 2001 79)" fill="#71BC78"/>
<circle cx="38" cy="38" r="38" transform="matrix(-1 0 0 1 2000 80)" fill="#71BC78"/>
<circle cx="38" cy="38" r="38" transform="matrix(-1 0 0 1 1999 81)" fill="#71BC78"/>
<circle cx="38" cy="38" r="38" transform="matrix(-1 0 0 1 1998 82)" fill="#71BC78"/>
<circle cx="38" cy="38" r="38" transform="matrix(-1 0 0 1 1997 83)" fill="#71BC78"/>
<circle cx="38" cy="38" r="38" transform="matrix(-1 0 0 1 1996 84)" fill="#71BC78"/>
<circle cx="38" cy="38" r="38" transform="matrix(-1 0 0 1 1995 85)" fill="#71BC78"/>
<circle cx="38" cy="38" r="38" transform="matrix(-1 0 0 1 1994 86)" fill="#71BC78"/>
<circle cx="38" cy="38" r="38" transform="matrix(-1 0 0 1 1993 87)" fill="#71BC78"/>
<circle cx="38" cy="38" r="38" transform="matrix(-1 0 0 1 1992 88)" fill="#71BC78"/>
<circle cx="38" cy="38" r="38" transform="matrix(-1 0 0 1 1991 89)" fill="#71BC78"/>
<circle cx="38" cy="38" r="38" transform="matrix(-1 0 0 1 1990 90)" fill="#71BC78"/>
<circle cx="38" cy="38" r="38" transform="matrix(-1 0 0 1 1989 91)" fill="#71BC78"/>
<circle cx="38" cy="38" r="38" transform="matrix(-1 0 0 1 1988 92)" fill="#71BC78"/>
<circle cx="38" cy="38" r="38" transform="matrix(-1 0 0 1 1987 93)" fill="#71BC78"/>
<circle cx="38" cy="38" r="38" transform="matrix(-1 0 0 1 1986 94)" fill="#71BC78"/>
<path d="M1078 1031C1078 1051.99 1060.99 1069 1040 1069V1069V993H1078V1031Z" fill="#71BC78"/>
<path d="M1078 106C1078 85.0132 1060.99 68 1040 68V68V144H1078V106Z" fill="#71BC78"/>
<circle cx="38" cy="38" r="38" transform="matrix(-1 0 0 1 2012 68)" fill="url(#paint4_radial_2130_379)"/>
<circle cx="1973" cy="1030" r="38" transform="rotate(180 1973 1030)" fill="#71BC78"/>
<circle cx="1972" cy="1029" r="38" transform="rotate(180 1972 1029)" fill="#71BC78"/>
<circle cx="1971" cy="1028" r="38" transform="rotate(180 1971 1028)" fill="#71BC78"/>
<circle cx="1970" cy="1027" r="38" transform="rotate(180 1970 1027)" fill="#71BC78"/>
<circle cx="1969" cy="1026" r="38" transform="rotate(180 1969 1026)" fill="#71BC78"/>
<circle cx="1968" cy="1025" r="38" transform="rotate(180 1968 1025)" fill="#71BC78"/>
<circle cx="1967" cy="1024" r="38" transform="rotate(180 1967 1024)" fill="#71BC78"/>
<circle cx="1966" cy="1023" r="38" transform="rotate(180 1966 1023)" fill="#71BC78"/>
<circle cx="1965" cy="1022" r="38" transform="rotate(180 1965 1022)" fill="#71BC78"/>
<circle cx="1964" cy="1021" r="38" transform="rotate(180 1964 1021)" fill="#71BC78"/>
<circle cx="1963" cy="1020" r="38" transform="rotate(180 1963 1020)" fill="#71BC78"/>
<circle cx="1962" cy="1019" r="38" transform="rotate(180 1962 1019)" fill="#71BC78"/>
<circle cx="1961" cy="1018" r="38" transform="rotate(180 1961 1018)" fill="#71BC78"/>
<circle cx="1960" cy="1017" r="38" transform="rotate(180 1960 1017)" fill="#71BC78"/>
<circle cx="1959" cy="1016" r="38" transform="rotate(180 1959 1016)" fill="#71BC78"/>
<circle cx="1958" cy="1015" r="38" transform="rotate(180 1958 1015)" fill="#71BC78"/>
<circle cx="1957" cy="1014" r="38" transform="rotate(180 1957 1014)" fill="#71BC78"/>
<circle cx="1956" cy="1013" r="38" transform="rotate(180 1956 1013)" fill="#71BC78"/>
<circle cx="1955" cy="1012" r="38" transform="rotate(180 1955 1012)" fill="#71BC78"/>
<circle cx="1954" cy="1011" r="38" transform="rotate(180 1954 1011)" fill="#71BC78"/>
<circle cx="1953" cy="1010" r="38" transform="rotate(180 1953 1010)" fill="#71BC78"/>
<circle cx="1952" cy="1009" r="38" transform="rotate(180 1952 1009)" fill="#71BC78"/>
<circle cx="1951" cy="1008" r="38" transform="rotate(180 1951 1008)" fill="#71BC78"/>
<circle cx="1950" cy="1007" r="38" transform="rotate(180 1950 1007)" fill="#71BC78"/>
<circle cx="1949" cy="1006" r="38" transform="rotate(180 1949 1006)" fill="#71BC78"/>
<circle cx="1948" cy="1005" r="38" transform="rotate(180 1948 1005)" fill="#71BC78"/>
<circle cx="1974" cy="1031" r="38" transform="rotate(180 1974 1031)" fill="url(#paint5_radial_2130_379)"/>
<path d="M1078 1030.5C1078 1051.76 1060.99 1069 1040 1069V992C1060.99 992 1078 1009.24 1078 1030.5Z" fill="url(#paint6_radial_2130_379)"/>
<path d="M1078 106C1078 126.987 1060.99 144 1040 144V68C1060.99 68 1078 85.0132 1078 106Z" fill="url(#paint7_radial_2130_379)"/>
<g filter="url(#filter3_d_2130_379)">
<path d="M1958.22 68H1078V106H1920.28L1958.22 68Z" fill="#71BC78"/>
</g>
<g filter="url(#filter4_d_2130_379)">
<path d="M1958.26 1069H1078V1031H1920.28L1958.26 1069Z" fill="#71BC78"/>
</g>
<g filter="url(#filter5_d_2130_379)">
<path d="M2012 121.756L1974 159.78V977.285L2012 1015.24V121.756Z" fill="#71BC78"/>
</g>
<path d="M928.667 595.692C928.719 603.66 926.889 610.411 923.175 615.943C919.519 621.416 914.478 625.58 908.051 628.435C901.682 631.23 894.426 632.655 886.281 632.708C878.196 632.761 870.892 631.432 864.37 628.72C857.907 625.95 852.753 621.853 848.909 616.428C845.123 610.945 843.204 604.219 843.152 596.251C843.117 590.919 844.14 586.078 846.221 581.728C848.36 577.378 851.324 573.638 855.113 570.508C858.9 567.319 863.396 564.887 868.6 563.213C873.804 561.479 879.482 560.593 885.634 560.552C893.837 560.499 901.171 561.945 907.636 564.891C914.158 567.778 919.283 571.876 923.009 577.184C926.735 582.433 928.621 588.602 928.667 595.692ZM905.28 594.438C905.253 590.337 904.41 586.797 902.749 583.82C901.148 580.784 898.876 578.455 895.936 576.833C892.996 575.212 889.592 574.414 885.725 574.439C881.799 574.465 878.377 575.307 875.458 576.967C872.598 578.626 870.357 580.985 868.736 584.042C867.174 587.041 866.406 590.591 866.433 594.692C866.46 598.852 867.275 602.421 868.876 605.399C870.536 608.318 872.836 610.559 875.776 612.122C878.716 613.685 882.178 614.453 886.162 614.427C890.146 614.401 893.569 613.588 896.429 611.987C899.29 610.386 901.473 608.116 902.977 605.176C904.539 602.178 905.307 598.599 905.28 594.438ZM925.468 536.473C925.51 542.918 923.848 548.672 920.483 553.733C917.117 558.735 912.426 562.663 906.409 565.514C900.451 568.366 893.605 569.817 885.871 569.867C878.137 569.918 871.213 568.557 865.101 565.784C859.048 563.011 854.277 559.146 850.787 554.188C847.356 549.172 845.619 543.441 845.577 536.995C845.527 529.378 847.213 522.922 850.636 517.626C854.058 512.271 858.748 508.198 864.707 505.405C870.724 502.612 877.57 501.19 885.246 501.14C893.039 501.089 899.961 502.42 906.015 505.135C912.068 507.849 916.811 511.861 920.244 517.171C923.677 522.422 925.418 528.856 925.468 536.473ZM902.271 537.592C902.248 533.959 901.553 530.799 900.188 528.113C898.822 525.368 896.875 523.242 894.345 521.735C891.875 520.228 888.881 519.485 885.366 519.508C881.967 519.531 879.043 520.282 876.591 521.763C874.14 523.244 872.25 525.366 870.92 528.128C869.59 530.832 868.937 534.059 868.962 537.809C868.986 541.501 869.681 544.719 871.046 547.464C872.412 550.209 874.33 552.364 876.802 553.93C879.331 555.437 882.324 556.179 885.781 556.157C889.238 556.134 892.192 555.353 894.643 553.814C897.094 552.216 898.984 550.035 900.313 547.273C901.643 544.51 902.296 541.283 902.271 537.592ZM1033.36 611.707L1033.48 629.988L946.825 630.554L946.723 614.91L988.001 569.727C992.305 564.777 995.704 560.478 998.2 556.828C1000.7 553.179 1002.46 549.886 1003.5 546.95C1004.59 543.954 1005.13 541.109 1005.11 538.414C1005.09 534.488 1004.36 531.065 1002.93 528.144C1001.51 525.165 999.443 522.864 996.737 521.241C994.09 519.618 990.832 518.819 986.965 518.844C982.688 518.872 979.032 519.892 975.999 521.904C973.023 523.857 970.756 526.568 969.196 530.035C967.695 533.502 966.96 537.462 966.989 541.915L943.698 542.067C943.649 534.509 945.361 527.613 948.836 521.379C952.311 515.086 957.317 510.044 963.855 506.251C970.393 502.458 978.173 500.532 987.197 500.473C995.986 500.416 1003.44 501.832 1009.55 504.722C1015.66 507.553 1020.32 511.624 1023.52 516.935C1026.71 522.247 1028.34 528.594 1028.39 535.976C1028.41 540.078 1027.77 544.125 1026.44 548.118C1025.12 552.111 1023.24 556.079 1020.81 560.021C1018.43 563.903 1015.59 567.848 1012.27 571.854C1008.96 575.86 1005.27 579.957 1001.19 584.143L976.412 612.079L1033.36 611.707Z" fill="#303B3F"/>
<path d="M1134.77 501.354L1134.86 514.01L1085.34 629.649L1060.82 629.809L1110.37 519.796L1045.33 520.221L1045.22 501.94L1134.77 501.354ZM1169.86 611.079L1171.53 611.068C1179.09 611.018 1185.47 610.01 1190.67 608.042C1195.93 606.074 1200.16 603.322 1203.36 599.785C1206.62 596.19 1208.96 591.926 1210.39 586.995C1211.88 582.005 1212.61 576.492 1212.57 570.457L1212.42 547.254C1212.39 542.332 1211.86 538.029 1210.84 534.344C1209.82 530.601 1208.39 527.475 1206.56 524.968C1204.79 522.46 1202.69 520.598 1200.28 519.384C1197.87 518.11 1195.29 517.483 1192.54 517.501C1189.49 517.521 1186.8 518.241 1184.47 519.663C1182.13 521.084 1180.15 523.031 1178.53 525.503C1176.96 527.915 1175.75 530.706 1174.89 533.876C1174.09 537.046 1173.7 540.388 1173.72 543.904C1173.75 547.302 1174.15 550.551 1174.93 553.652C1175.77 556.752 1176.99 559.498 1178.59 561.89C1180.24 564.281 1182.31 566.172 1184.78 567.562C1187.25 568.894 1190.12 569.549 1193.4 569.527C1196.51 569.507 1199.32 568.903 1201.83 567.715C1204.4 566.467 1206.62 564.841 1208.48 562.837C1210.34 560.774 1211.76 558.509 1212.74 556.041C1213.78 553.515 1214.35 550.962 1214.45 548.384L1222.64 551.846C1222.67 556.123 1221.79 560.348 1220 564.519C1218.27 568.691 1215.81 572.487 1212.61 575.906C1209.46 579.266 1205.79 581.986 1201.59 584.064C1197.38 586.084 1192.85 587.11 1187.98 587.141C1181.95 587.181 1176.61 586.102 1171.96 583.906C1167.32 581.71 1163.4 578.659 1160.22 574.754C1157.08 570.79 1154.71 566.235 1153.09 561.09C1151.48 555.885 1150.65 550.324 1150.61 544.406C1150.57 538.254 1151.5 532.476 1153.4 527.073C1155.3 521.611 1158.05 516.818 1161.66 512.693C1165.32 508.509 1169.75 505.228 1174.95 502.85C1180.15 500.413 1186 499.174 1192.5 499.131C1199.24 499.087 1205.26 500.366 1210.55 502.969C1215.84 505.571 1220.34 509.204 1224.07 513.867C1227.79 518.472 1230.64 523.932 1232.61 530.247C1234.64 536.562 1235.69 543.469 1235.74 550.969L1235.79 559.143C1235.84 567.053 1235.1 574.558 1233.56 581.658C1232.03 588.758 1229.64 595.248 1226.39 601.129C1223.15 607.01 1219 612.105 1213.93 616.416C1208.92 620.726 1202.9 624.076 1195.89 626.466C1188.93 628.796 1180.97 629.991 1172 630.049L1169.98 630.063L1169.86 611.079Z" fill="#EEB312"/>
<defs>
<filter id="filter0_d_2130_379" x="117.778" y="68" width="888.222" height="46" filterUnits="userSpaceOnUse" color-interpolation-filters="sRGB">
<feFlood flood-opacity="0" result="BackgroundImageFix"/>
<feColorMatrix in="SourceAlpha" type="matrix" values="0 0 0 0 0 0 0 0 0 0 0 0 0 0 0 0 0 0 127 0" result="hardAlpha"/>
<feOffset dy="4"/>
<feGaussianBlur stdDeviation="2"/>
<feComposite in2="hardAlpha" operator="out"/>
<feColorMatrix type="matrix" values="0 0 0 0 0 0 0 0 0 0 0 0 0 0 0 0 0 0 0.25 0"/>
<feBlend mode="normal" in2="BackgroundImageFix" result="effect1_dropShadow_2130_379"/>
<feBlend mode="normal" in="SourceGraphic" in2="effect1_dropShadow_2130_379" result="shape"/>
</filter>
<filter id="filter1_d_2130_379" x="117.738" y="1023" width="888.262" height="46" filterUnits="userSpaceOnUse" color-interpolation-filters="sRGB">
<feFlood flood-opacity="0" result="BackgroundImageFix"/>
<feColorMatrix in="SourceAlpha" type="matrix" values="0 0 0 0 0 0 0 0 0 0 0 0 0 0 0 0 0 0 127 0" result="hardAlpha"/>
<feOffset dy="-4"/>
<feGaussianBlur stdDeviation="2"/>
<feComposite in2="hardAlpha" operator="out"/>
<feColorMatrix type="matrix" values="0 0 0 0 0 0 0 0 0 0 0 0 0 0 0 0 0 0 0.25 0"/>
<feBlend mode="normal" in2="BackgroundImageFix" result="effect1_dropShadow_2130_379"/>
<feBlend mode="normal" in="SourceGraphic" in2="effect1_dropShadow_2130_379" result="shape"/>
</filter>
<filter id="filter2_d_2130_379" x="68" y="121.756" width="46" height="901.484" filterUnits="userSpaceOnUse" color-interpolation-filters="sRGB">
<feFlood flood-opacity="0" result="BackgroundImageFix"/>
<feColorMatrix in="SourceAlpha" type="matrix" values="0 0 0 0 0 0 0 0 0 0 0 0 0 0 0 0 0 0 127 0" result="hardAlpha"/>
<feOffset dx="4" dy="4"/>
<feGaussianBlur stdDeviation="2"/>
<feComposite in2="hardAlpha" operator="out"/>
<feColorMatrix type="matrix" values="0 0 0 0 0 0 0 0 0 0 0 0 0 0 0 0 0 0 0.25 0"/>
<feBlend mode="normal" in2="BackgroundImageFix" result="effect1_dropShadow_2130_379"/>
<feBlend mode="normal" in="SourceGraphic" in2="effect1_dropShadow_2130_379" result="shape"/>
</filter>
<filter id="filter3_d_2130_379" x="1074" y="68" width="888.222" height="46" filterUnits="userSpaceOnUse" color-interpolation-filters="sRGB">
<feFlood flood-opacity="0" result="BackgroundImageFix"/>
<feColorMatrix in="SourceAlpha" type="matrix" values="0 0 0 0 0 0 0 0 0 0 0 0 0 0 0 0 0 0 127 0" result="hardAlpha"/>
<feOffset dy="4"/>
<feGaussianBlur stdDeviation="2"/>
<feComposite in2="hardAlpha" operator="out"/>
<feColorMatrix type="matrix" values="0 0 0 0 0 0 0 0 0 0 0 0 0 0 0 0 0 0 0.25 0"/>
<feBlend mode="normal" in2="BackgroundImageFix" result="effect1_dropShadow_2130_379"/>
<feBlend mode="normal" in="SourceGraphic" in2="effect1_dropShadow_2130_379" result="shape"/>
</filter>
<filter id="filter4_d_2130_379" x="1074" y="1023" width="888.262" height="46" filterUnits="userSpaceOnUse" color-interpolation-filters="sRGB">
<feFlood flood-opacity="0" result="BackgroundImageFix"/>
<feColorMatrix in="SourceAlpha" type="matrix" values="0 0 0 0 0 0 0 0 0 0 0 0 0 0 0 0 0 0 127 0" result="hardAlpha"/>
<feOffset dy="-4"/>
<feGaussianBlur stdDeviation="2"/>
<feComposite in2="hardAlpha" operator="out"/>
<feColorMatrix type="matrix" values="0 0 0 0 0 0 0 0 0 0 0 0 0 0 0 0 0 0 0.25 0"/>
<feBlend mode="normal" in2="BackgroundImageFix" result="effect1_dropShadow_2130_379"/>
<feBlend mode="normal" in="SourceGraphic" in2="effect1_dropShadow_2130_379" result="shape"/>
</filter>
<filter id="filter5_d_2130_379" x="1974" y="121.756" width="46" height="901.484" filterUnits="userSpaceOnUse" color-interpolation-filters="sRGB">
<feFlood flood-opacity="0" result="BackgroundImageFix"/>
<feColorMatrix in="SourceAlpha" type="matrix" values="0 0 0 0 0 0 0 0 0 0 0 0 0 0 0 0 0 0 127 0" result="hardAlpha"/>
<feOffset dx="4" dy="4"/>
<feGaussianBlur stdDeviation="2"/>
<feComposite in2="hardAlpha" operator="out"/>
<feColorMatrix type="matrix" values="0 0 0 0 0 0 0 0 0 0 0 0 0 0 0 0 0 0 0.25 0"/>
<feBlend mode="normal" in2="BackgroundImageFix" result="effect1_dropShadow_2130_379"/>
<feBlend mode="normal" in="SourceGraphic" in2="effect1_dropShadow_2130_379" result="shape"/>
</filter>
<radialGradient id="paint0_radial_2130_379" cx="0" cy="0" r="1" gradientUnits="userSpaceOnUse" gradientTransform="translate(106 106) rotate(90) scale(38)">
<stop offset="0.765"/>
<stop offset="1" stop-color="#71BC78"/>
</radialGradient>
<radialGradient id="paint1_radial_2130_379" cx="0" cy="0" r="1" gradientUnits="userSpaceOnUse" gradientTransform="translate(38 38) rotate(90) scale(38)">
<stop offset="0.765"/>
<stop offset="1" stop-color="#71BC78"/>
</radialGradient>
<radialGradient id="paint2_radial_2130_379" cx="0" cy="0" r="1" gradientUnits="userSpaceOnUse" gradientTransform="translate(1040 1030.5) rotate(180) scale(38 38.5)">
<stop offset="0.76"/>
<stop offset="1" stop-color="#71BC78"/>
</radialGradient>
<radialGradient id="paint3_radial_2130_379" cx="0" cy="0" r="1" gradientUnits="userSpaceOnUse" gradientTransform="translate(1040 106) rotate(180) scale(38)">
<stop offset="0.76"/>
<stop offset="1" stop-color="#71BC78"/>
</radialGradient>
<radialGradient id="paint4_radial_2130_379" cx="0" cy="0" r="1" gradientUnits="userSpaceOnUse" gradientTransform="translate(38 38) rotate(90) scale(38)">
<stop offset="0.765"/>
<stop offset="1" stop-color="#71BC78"/>
</radialGradient>
<radialGradient id="paint5_radial_2130_379" cx="0" cy="0" r="1" gradientUnits="userSpaceOnUse" gradientTransform="translate(1974 1031) rotate(90) scale(38)">
<stop offset="0.765"/>
<stop offset="1" stop-color="#71BC78"/>
</radialGradient>
<radialGradient id="paint6_radial_2130_379" cx="0" cy="0" r="1" gradientUnits="userSpaceOnUse" gradientTransform="translate(1040 1030.5) scale(38 38.5)">
<stop offset="0.76"/>
<stop offset="1" stop-color="#71BC78"/>
</radialGradient>
<radialGradient id="paint7_radial_2130_379" cx="0" cy="0" r="1" gradientUnits="userSpaceOnUse" gradientTransform="translate(1040 106) scale(38)">
<stop offset="0.76"/>
<stop offset="1" stop-color="#71BC78"/>
</radialGradient>
</defs>
</svg>
