<svg width="2080" height="1137" viewBox="0 0 2080 1137" fill="none" xmlns="http://www.w3.org/2000/svg">
<path d="M0 68C0 30.4447 30.4446 0 68 0H1040V1137H68C30.4446 1137 0 1106.56 0 1069V68Z" fill="#643E30"/>
<rect x="68" y="68" width="106" height="84" rx="28" fill="black"/>
<rect x="948" y="68" width="92" height="84" fill="black"/>
<rect x="948" y="985" width="92" height="84" fill="black"/>
<rect x="68" y="985" width="106" height="84" rx="28" fill="black"/>
<rect x="106" y="106" width="934" height="925" fill="#303B3F"/>
<circle cx="109" cy="109" r="38" fill="#303B3F"/>
<circle cx="110" cy="110" r="38" fill="#303B3F"/>
<circle cx="111" cy="111" r="38" fill="#303B3F"/>
<circle cx="112" cy="112" r="38" fill="#303B3F"/>
<circle cx="113" cy="113" r="38" fill="#303B3F"/>
<circle cx="114" cy="114" r="38" fill="#303B3F"/>
<circle cx="115" cy="115" r="38" fill="#303B3F"/>
<circle cx="116" cy="116" r="38" fill="#303B3F"/>
<circle cx="117" cy="117" r="38" fill="#303B3F"/>
<circle cx="118" cy="118" r="38" fill="#303B3F"/>
<circle cx="119" cy="119" r="38" fill="#303B3F"/>
<circle cx="120" cy="120" r="38" fill="#303B3F"/>
<circle cx="121" cy="121" r="38" fill="#303B3F"/>
<circle cx="122" cy="122" r="38" fill="#303B3F"/>
<circle cx="123" cy="123" r="38" fill="#303B3F"/>
<circle cx="124" cy="124" r="38" fill="#303B3F"/>
<circle cx="125" cy="125" r="38" fill="#303B3F"/>
<circle cx="126" cy="126" r="38" fill="#303B3F"/>
<circle cx="127" cy="127" r="38" fill="#303B3F"/>
<circle cx="128" cy="128" r="38" fill="#303B3F"/>
<circle cx="129" cy="129" r="38" fill="#303B3F"/>
<circle cx="130" cy="130" r="38" fill="#303B3F"/>
<circle cx="131" cy="131" r="38" fill="#303B3F"/>
<circle cx="132" cy="132" r="38" fill="#303B3F"/>
<path d="M1002 1031C1002 1051.99 1019.01 1069 1040 1069V993H1002V1031Z" fill="#303B3F"/>
<path d="M1002 106C1002 85.0132 1019.01 68 1040 68V144H1002V106Z" fill="#303B3F"/>
<circle cx="106" cy="106" r="38" fill="url(#paint0_radial_2142_332)"/>
<circle cx="38" cy="38" r="38" transform="matrix(1 0 0 -1 69 1068)" fill="#303B3F"/>
<circle cx="38" cy="38" r="38" transform="matrix(1 0 0 -1 70 1067)" fill="#303B3F"/>
<circle cx="38" cy="38" r="38" transform="matrix(1 0 0 -1 71 1066)" fill="#303B3F"/>
<circle cx="38" cy="38" r="38" transform="matrix(1 0 0 -1 72 1065)" fill="#303B3F"/>
<circle cx="38" cy="38" r="38" transform="matrix(1 0 0 -1 73 1064)" fill="#303B3F"/>
<circle cx="38" cy="38" r="38" transform="matrix(1 0 0 -1 74 1063)" fill="#303B3F"/>
<circle cx="38" cy="38" r="38" transform="matrix(1 0 0 -1 75 1062)" fill="#303B3F"/>
<circle cx="38" cy="38" r="38" transform="matrix(1 0 0 -1 76 1061)" fill="#303B3F"/>
<circle cx="38" cy="38" r="38" transform="matrix(1 0 0 -1 77 1060)" fill="#303B3F"/>
<circle cx="38" cy="38" r="38" transform="matrix(1 0 0 -1 78 1059)" fill="#303B3F"/>
<circle cx="38" cy="38" r="38" transform="matrix(1 0 0 -1 79 1058)" fill="#303B3F"/>
<circle cx="38" cy="38" r="38" transform="matrix(1 0 0 -1 80 1057)" fill="#303B3F"/>
<circle cx="38" cy="38" r="38" transform="matrix(1 0 0 -1 81 1056)" fill="#303B3F"/>
<circle cx="38" cy="38" r="38" transform="matrix(1 0 0 -1 82 1055)" fill="#303B3F"/>
<circle cx="38" cy="38" r="38" transform="matrix(1 0 0 -1 83 1054)" fill="#303B3F"/>
<circle cx="38" cy="38" r="38" transform="matrix(1 0 0 -1 84 1053)" fill="#303B3F"/>
<circle cx="38" cy="38" r="38" transform="matrix(1 0 0 -1 85 1052)" fill="#303B3F"/>
<circle cx="38" cy="38" r="38" transform="matrix(1 0 0 -1 86 1051)" fill="#303B3F"/>
<circle cx="38" cy="38" r="38" transform="matrix(1 0 0 -1 87 1050)" fill="#303B3F"/>
<circle cx="38" cy="38" r="38" transform="matrix(1 0 0 -1 88 1049)" fill="#303B3F"/>
<circle cx="38" cy="38" r="38" transform="matrix(1 0 0 -1 89 1048)" fill="#303B3F"/>
<circle cx="38" cy="38" r="38" transform="matrix(1 0 0 -1 90 1047)" fill="#303B3F"/>
<circle cx="38" cy="38" r="38" transform="matrix(1 0 0 -1 91 1046)" fill="#303B3F"/>
<circle cx="38" cy="38" r="38" transform="matrix(1 0 0 -1 92 1045)" fill="#303B3F"/>
<circle cx="38" cy="38" r="38" transform="matrix(1 0 0 -1 93 1044)" fill="#303B3F"/>
<circle cx="38" cy="38" r="38" transform="matrix(1 0 0 -1 94 1043)" fill="#303B3F"/>
<circle cx="38" cy="38" r="38" transform="matrix(1 0 0 -1 68 1069)" fill="url(#paint1_radial_2142_332)"/>
<path d="M1002 1030.5C1002 1051.76 1019.01 1069 1040 1069V992C1019.01 992 1002 1009.24 1002 1030.5Z" fill="url(#paint2_radial_2142_332)"/>
<path d="M1002 106C1002 126.987 1019.01 144 1040 144V68C1019.01 68 1002 85.0132 1002 106Z" fill="url(#paint3_radial_2142_332)"/>
<g filter="url(#filter0_d_2142_332)">
<path d="M121.778 68H1002V106H159.722L121.778 68Z" fill="#303B3F"/>
</g>
<g filter="url(#filter1_d_2142_332)">
<path d="M121.738 1069H1002V1031H159.722L121.738 1069Z" fill="#303B3F"/>
</g>
<g filter="url(#filter2_d_2142_332)">
<path d="M68 121.756L106 159.78V977.285L68 1015.24V121.756Z" fill="#303B3F"/>
</g>
<path d="M2080 68C2080 30.4447 2049.56 0 2012 0H1040V1137H2012C2049.56 1137 2080 1106.56 2080 1069V68Z" fill="#643E30"/>
<rect width="106" height="84" rx="28" transform="matrix(-1 0 0 1 2012 68)" fill="black"/>
<rect width="92" height="84" transform="matrix(-1 0 0 1 1132 68)" fill="black"/>
<rect width="92" height="84" transform="matrix(-1 0 0 1 1132 985)" fill="black"/>
<rect width="106" height="84" rx="28" transform="matrix(-1 0 0 1 2012 985)" fill="black"/>
<rect width="934" height="925" transform="matrix(-1 0 0 1 1974 106)" fill="#303B3F"/>
<circle cx="38" cy="38" r="38" transform="matrix(-1 0 0 1 2009 71)" fill="#303B3F"/>
<circle cx="38" cy="38" r="38" transform="matrix(-1 0 0 1 2008 72)" fill="#303B3F"/>
<circle cx="38" cy="38" r="38" transform="matrix(-1 0 0 1 2007 73)" fill="#303B3F"/>
<circle cx="38" cy="38" r="38" transform="matrix(-1 0 0 1 2006 74)" fill="#303B3F"/>
<circle cx="38" cy="38" r="38" transform="matrix(-1 0 0 1 2005 75)" fill="#303B3F"/>
<circle cx="38" cy="38" r="38" transform="matrix(-1 0 0 1 2004 76)" fill="#303B3F"/>
<circle cx="38" cy="38" r="38" transform="matrix(-1 0 0 1 2003 77)" fill="#303B3F"/>
<circle cx="38" cy="38" r="38" transform="matrix(-1 0 0 1 2002 78)" fill="#303B3F"/>
<circle cx="38" cy="38" r="38" transform="matrix(-1 0 0 1 2001 79)" fill="#303B3F"/>
<circle cx="38" cy="38" r="38" transform="matrix(-1 0 0 1 2000 80)" fill="#303B3F"/>
<circle cx="38" cy="38" r="38" transform="matrix(-1 0 0 1 1999 81)" fill="#303B3F"/>
<circle cx="38" cy="38" r="38" transform="matrix(-1 0 0 1 1998 82)" fill="#303B3F"/>
<circle cx="38" cy="38" r="38" transform="matrix(-1 0 0 1 1997 83)" fill="#303B3F"/>
<circle cx="38" cy="38" r="38" transform="matrix(-1 0 0 1 1996 84)" fill="#303B3F"/>
<circle cx="38" cy="38" r="38" transform="matrix(-1 0 0 1 1995 85)" fill="#303B3F"/>
<circle cx="38" cy="38" r="38" transform="matrix(-1 0 0 1 1994 86)" fill="#303B3F"/>
<circle cx="38" cy="38" r="38" transform="matrix(-1 0 0 1 1993 87)" fill="#303B3F"/>
<circle cx="38" cy="38" r="38" transform="matrix(-1 0 0 1 1992 88)" fill="#303B3F"/>
<circle cx="38" cy="38" r="38" transform="matrix(-1 0 0 1 1991 89)" fill="#303B3F"/>
<circle cx="38" cy="38" r="38" transform="matrix(-1 0 0 1 1990 90)" fill="#303B3F"/>
<circle cx="38" cy="38" r="38" transform="matrix(-1 0 0 1 1989 91)" fill="#303B3F"/>
<circle cx="38" cy="38" r="38" transform="matrix(-1 0 0 1 1988 92)" fill="#303B3F"/>
<circle cx="38" cy="38" r="38" transform="matrix(-1 0 0 1 1987 93)" fill="#303B3F"/>
<circle cx="38" cy="38" r="38" transform="matrix(-1 0 0 1 1986 94)" fill="#303B3F"/>
<path d="M1078 1031C1078 1051.99 1060.99 1069 1040 1069V993H1078V1031Z" fill="#303B3F"/>
<path d="M1078 106C1078 85.0132 1060.99 68 1040 68V144H1078V106Z" fill="#303B3F"/>
<circle cx="38" cy="38" r="38" transform="matrix(-1 0 0 1 2012 68)" fill="url(#paint4_radial_2142_332)"/>
<circle cx="1973" cy="1030" r="38" transform="rotate(180 1973 1030)" fill="#303B3F"/>
<circle cx="1972" cy="1029" r="38" transform="rotate(180 1972 1029)" fill="#303B3F"/>
<circle cx="1971" cy="1028" r="38" transform="rotate(180 1971 1028)" fill="#303B3F"/>
<circle cx="1970" cy="1027" r="38" transform="rotate(180 1970 1027)" fill="#303B3F"/>
<circle cx="1969" cy="1026" r="38" transform="rotate(180 1969 1026)" fill="#303B3F"/>
<circle cx="1968" cy="1025" r="38" transform="rotate(180 1968 1025)" fill="#303B3F"/>
<circle cx="1967" cy="1024" r="38" transform="rotate(180 1967 1024)" fill="#303B3F"/>
<circle cx="1966" cy="1023" r="38" transform="rotate(180 1966 1023)" fill="#303B3F"/>
<circle cx="1965" cy="1022" r="38" transform="rotate(180 1965 1022)" fill="#303B3F"/>
<circle cx="1964" cy="1021" r="38" transform="rotate(180 1964 1021)" fill="#303B3F"/>
<circle cx="1963" cy="1020" r="38" transform="rotate(180 1963 1020)" fill="#303B3F"/>
<circle cx="1962" cy="1019" r="38" transform="rotate(180 1962 1019)" fill="#303B3F"/>
<circle cx="1961" cy="1018" r="38" transform="rotate(180 1961 1018)" fill="#303B3F"/>
<circle cx="1960" cy="1017" r="38" transform="rotate(180 1960 1017)" fill="#303B3F"/>
<circle cx="1959" cy="1016" r="38" transform="rotate(180 1959 1016)" fill="#303B3F"/>
<circle cx="1958" cy="1015" r="38" transform="rotate(180 1958 1015)" fill="#303B3F"/>
<circle cx="1957" cy="1014" r="38" transform="rotate(180 1957 1014)" fill="#303B3F"/>
<circle cx="1956" cy="1013" r="38" transform="rotate(180 1956 1013)" fill="#303B3F"/>
<circle cx="1955" cy="1012" r="38" transform="rotate(180 1955 1012)" fill="#303B3F"/>
<circle cx="1954" cy="1011" r="38" transform="rotate(180 1954 1011)" fill="#303B3F"/>
<circle cx="1953" cy="1010" r="38" transform="rotate(180 1953 1010)" fill="#303B3F"/>
<circle cx="1952" cy="1009" r="38" transform="rotate(180 1952 1009)" fill="#303B3F"/>
<circle cx="1951" cy="1008" r="38" transform="rotate(180 1951 1008)" fill="#303B3F"/>
<circle cx="1950" cy="1007" r="38" transform="rotate(180 1950 1007)" fill="#303B3F"/>
<circle cx="1949" cy="1006" r="38" transform="rotate(180 1949 1006)" fill="#303B3F"/>
<circle cx="1948" cy="1005" r="38" transform="rotate(180 1948 1005)" fill="#303B3F"/>
<circle cx="1974" cy="1031" r="38" transform="rotate(180 1974 1031)" fill="url(#paint5_radial_2142_332)"/>
<path d="M1078 1030.5C1078 1051.76 1060.99 1069 1040 1069V992C1060.99 992 1078 1009.24 1078 1030.5Z" fill="url(#paint6_radial_2142_332)"/>
<path d="M1078 106C1078 126.987 1060.99 144 1040 144V68C1060.99 68 1078 85.0132 1078 106Z" fill="url(#paint7_radial_2142_332)"/>
<g filter="url(#filter3_d_2142_332)">
<path d="M1958.22 68H1078V106H1920.28L1958.22 68Z" fill="#303B3F"/>
</g>
<g filter="url(#filter4_d_2142_332)">
<path d="M1958.26 1069H1078V1031H1920.28L1958.26 1069Z" fill="#303B3F"/>
</g>
<g filter="url(#filter5_d_2142_332)">
<path d="M2012 121.756L1974 159.78V977.285L2012 1015.24V121.756Z" fill="#303B3F"/>
</g>
<path d="M961.072 41.4799C961.772 41.3526 962.122 41.0026 962.122 40.4299C962.122 39.836 961.931 39.1785 961.549 38.4573C961.188 37.715 960.647 37.015 959.926 36.3575C958.038 34.6606 955.483 33.8122 952.259 33.8122C950.668 33.8122 949.183 34.0773 947.804 34.6076C946.341 33.8652 945.174 32.688 944.304 31.076C943.435 29.464 943 27.7247 943 25.8581C943 20.9797 945.036 17.2147 949.109 14.5634C952.608 12.2938 956.925 11.1591 962.058 11.1591C965.876 11.1591 969.089 11.5727 971.698 12.3999C974.307 13.2059 976.439 14.2452 978.093 15.5179C978.581 16.9178 978.825 18.3707 978.825 19.8767C978.825 21.3827 978.624 22.7508 978.221 23.981C977.818 25.2112 977.234 26.1975 976.471 26.9399C975.749 26.4096 974.445 25.8687 972.557 25.3173C970.669 24.7658 968.951 24.49 967.403 24.49C965.855 24.49 964.815 24.5855 964.285 24.7764C963.776 24.9673 963.521 25.2642 963.521 25.6672C963.521 25.8581 963.553 26.0384 963.617 26.2081C964.359 26.0172 965.314 25.9218 966.48 25.9218C970.616 25.9218 973.989 26.8975 976.598 28.8489C979.673 31.182 981.211 34.6818 981.211 39.3482C981.211 43.4631 979.546 46.878 976.216 49.593C972.61 52.4989 967.764 53.9518 961.676 53.9518C958.325 53.9518 955.419 53.6973 952.958 53.1882C950.498 52.7004 948.101 51.8307 945.768 50.5793C944.177 48.2673 943.382 45.9235 943.382 43.5479C943.382 41.1511 944.198 39.1679 945.832 37.5983C947.465 36.0287 949.469 35.2439 951.845 35.2439C954.242 35.2439 956.193 35.7318 957.699 36.7074C959.226 37.6831 960.35 39.274 961.072 41.4799Z" fill="#303B3F"/>
<path d="M1001.41 50.9611V46.0932C996.96 45.8175 994.733 45.1387 994.733 44.057C994.733 43.76 994.818 43.5267 994.988 43.357C995.497 43.5903 996.483 43.8661 997.947 44.1842C999.431 44.4812 1000.82 44.6297 1002.11 44.6297C1007.8 44.6297 1012.24 43.251 1015.45 40.4936C1018.78 37.5877 1020.44 33.5258 1020.44 28.308C1020.44 23.0689 1018.6 18.901 1014.9 15.8042C1011.21 12.7074 1006.26 11.1591 1000.05 11.1591C995.55 11.1591 991.551 11.753 988.052 12.9408C986.418 13.4922 985.135 14.1074 984.202 14.7861C983.29 15.4648 982.834 16.1436 982.834 16.8223V47.0477C982.834 49.2536 983.788 50.9399 985.697 52.1065C987.373 53.1246 989.526 53.6337 992.156 53.6337C994.001 53.6337 995.772 53.3897 997.469 52.9019C999.166 52.3928 1000.48 51.7459 1001.41 50.9611Z" fill="#303B3F"/>
<path d="M1032.34 51.7565C1035.5 53.3049 1038.97 54.0791 1042.74 54.0791C1048.83 54.0791 1053.69 52.3716 1057.32 48.9567C1063.15 44.8172 1062.32 45.1229 1067.29 48.9567C1068.52 50.0754 1069.87 51.0086 1071.37 51.7565C1074.53 53.3049 1078 54.0791 1081.77 54.0791C1087.86 54.0791 1092.72 52.3716 1096.35 48.9567C1100.33 45.1812 1102.33 39.7088 1102.33 32.5396C1102.33 26.0915 1100.46 20.8948 1096.73 16.9496C1093.02 12.9832 1087.97 11 1081.58 11C1075.71 11 1070.9 12.7287 1067.17 16.186C1061.44 20.8542 1062.22 20.7116 1056.94 16.186C1053.31 12.7287 1048.51 11 1042.55 11C1036.68 11 1031.87 12.7287 1028.14 16.186C1023.94 20.11 1021.84 25.5612 1021.84 32.5396C1021.84 37.3544 1022.81 41.3738 1024.74 44.5979C1026.67 47.8007 1029.2 50.1869 1032.34 51.7565Z" fill="#19C218"/>
<path d="M1111.89 53.0928C1109.53 53.0928 1107.71 52.4671 1106.41 51.2157C1105.14 49.9642 1104.51 48.0765 1104.51 45.5524V14.4362C1105.63 13.4817 1107 12.7499 1108.61 12.2408C1110.24 11.7106 1111.93 11.4454 1113.67 11.4454C1116.24 11.4454 1118.41 12.0818 1120.19 13.3544C1122.12 14.7967 1123.09 16.7906 1123.09 19.3358V36.7393C1121.9 36.8453 1120.73 37.1847 1119.59 37.7574C1118.44 38.3089 1117.87 38.8816 1117.87 39.4755C1117.87 39.8361 1118.07 40.1436 1118.47 40.3982C1120.57 38.6377 1123.69 37.7574 1127.83 37.7574H1135.37C1136.77 40.2179 1137.47 42.7313 1137.47 45.2978C1137.47 46.5705 1137.24 47.981 1136.8 49.5294C1136.35 51.0778 1135.76 52.2656 1135.02 53.0928H1111.89Z" fill="#303B3F"/>
<path d="M1119.4 1093.6C1118.7 1093.73 1118.35 1094.08 1118.35 1094.65C1118.35 1095.24 1118.54 1095.9 1118.92 1096.62C1119.28 1097.36 1119.82 1098.06 1120.54 1098.72C1122.43 1100.42 1124.98 1101.27 1128.21 1101.27C1129.8 1101.27 1131.28 1101 1132.66 1100.47C1134.13 1101.21 1135.29 1102.39 1136.16 1104C1137.03 1105.62 1137.47 1107.35 1137.47 1109.22C1137.47 1114.1 1135.43 1117.86 1131.36 1120.52C1127.86 1122.79 1123.54 1123.92 1118.41 1123.92C1114.59 1123.92 1111.38 1123.51 1108.77 1122.68C1106.16 1121.87 1104.03 1120.83 1102.37 1119.56C1101.89 1118.16 1101.64 1116.71 1101.64 1115.2C1101.64 1113.7 1101.84 1112.33 1102.25 1111.1C1102.65 1109.87 1103.23 1108.88 1104 1108.14C1104.72 1108.67 1106.02 1109.21 1107.91 1109.76C1109.8 1110.31 1111.52 1110.59 1113.06 1110.59C1114.61 1110.59 1115.65 1110.49 1116.18 1110.3C1116.69 1110.11 1116.95 1109.81 1116.95 1109.41C1116.95 1109.22 1116.91 1109.04 1116.85 1108.87C1116.11 1109.06 1115.15 1109.16 1113.99 1109.16C1109.85 1109.16 1106.48 1108.18 1103.87 1106.23C1100.79 1103.9 1099.26 1100.4 1099.26 1095.73C1099.26 1091.62 1100.92 1088.2 1104.25 1085.49C1107.86 1082.58 1112.7 1081.13 1118.79 1081.13C1122.14 1081.13 1125.05 1081.38 1127.51 1081.89C1129.97 1082.38 1132.37 1083.25 1134.7 1084.5C1136.29 1086.81 1137.09 1089.16 1137.09 1091.53C1137.09 1093.93 1136.27 1095.91 1134.64 1097.48C1133 1099.05 1131 1099.84 1128.62 1099.84C1126.23 1099.84 1124.27 1099.35 1122.77 1098.37C1121.24 1097.4 1120.12 1095.81 1119.4 1093.6Z" fill="#303B3F"/>
<path d="M1079.05 1084.12V1088.99C1083.51 1089.26 1085.73 1089.94 1085.73 1091.02C1085.73 1091.32 1085.65 1091.55 1085.48 1091.72C1084.97 1091.49 1083.98 1091.21 1082.52 1090.89C1081.04 1090.6 1079.65 1090.45 1078.35 1090.45C1072.67 1090.45 1068.22 1091.83 1065.02 1094.59C1061.69 1097.49 1060.03 1101.55 1060.03 1106.77C1060.03 1112.01 1061.87 1116.18 1065.56 1119.27C1069.25 1122.37 1074.21 1123.92 1080.42 1123.92C1084.92 1123.92 1088.92 1123.33 1092.42 1122.14C1094.05 1121.59 1095.33 1120.97 1096.27 1120.29C1097.18 1119.61 1097.63 1118.94 1097.63 1118.26V1088.03C1097.63 1085.83 1096.68 1084.14 1094.77 1082.97C1093.09 1081.95 1090.94 1081.45 1088.31 1081.45C1086.47 1081.45 1084.69 1081.69 1083 1082.18C1081.3 1082.69 1079.99 1083.33 1079.05 1084.12Z" fill="#303B3F"/>
<path d="M1048.13 1083.32C1044.97 1081.77 1041.5 1081 1037.72 1081C1031.64 1081 1026.78 1082.71 1023.15 1086.12C1017.32 1090.26 1018.14 1089.96 1013.17 1086.12C1011.95 1085 1010.59 1084.07 1009.1 1083.32C1005.94 1081.77 1002.47 1081 998.693 1081C992.606 1081 987.749 1082.71 984.122 1086.12C980.134 1089.9 978.14 1095.37 978.14 1102.54C978.14 1108.99 980.007 1114.18 983.74 1118.13C987.452 1122.1 992.5 1124.08 998.884 1124.08C1004.76 1124.08 1009.56 1122.35 1013.3 1118.89C1019.03 1114.22 1018.25 1114.37 1023.53 1118.89C1027.16 1122.35 1031.95 1124.08 1037.91 1124.08C1043.79 1124.08 1048.59 1122.35 1052.33 1118.89C1056.53 1114.97 1058.63 1109.52 1058.63 1102.54C1058.63 1097.72 1057.66 1093.71 1055.73 1090.48C1053.8 1087.28 1051.27 1084.89 1048.13 1083.32Z" fill="#19C218"/>
<path d="M968.58 1081.99C970.935 1081.99 972.759 1082.61 974.053 1083.86C975.325 1085.12 975.962 1087 975.962 1089.53V1120.64C974.837 1121.6 973.469 1122.33 971.857 1122.84C970.224 1123.37 968.538 1123.63 966.798 1123.63C964.232 1123.63 962.058 1123 960.276 1121.72C958.346 1120.28 957.381 1118.29 957.381 1115.74V1098.34C958.569 1098.23 959.735 1097.89 960.881 1097.32C962.026 1096.77 962.599 1096.2 962.599 1095.6C962.599 1095.24 962.397 1094.94 961.994 1094.68C959.894 1096.44 956.776 1097.32 952.64 1097.32H945.1C943.7 1094.86 943 1092.35 943 1089.78C943 1088.51 943.223 1087.1 943.668 1085.55C944.114 1084 944.707 1082.81 945.45 1081.99H968.58Z" fill="#303B3F"/>
<defs>
<filter id="filter0_d_2142_332" x="117.778" y="68" width="888.222" height="46" filterUnits="userSpaceOnUse" color-interpolation-filters="sRGB">
<feFlood flood-opacity="0" result="BackgroundImageFix"/>
<feColorMatrix in="SourceAlpha" type="matrix" values="0 0 0 0 0 0 0 0 0 0 0 0 0 0 0 0 0 0 127 0" result="hardAlpha"/>
<feOffset dy="4"/>
<feGaussianBlur stdDeviation="2"/>
<feComposite in2="hardAlpha" operator="out"/>
<feColorMatrix type="matrix" values="0 0 0 0 0 0 0 0 0 0 0 0 0 0 0 0 0 0 0.25 0"/>
<feBlend mode="normal" in2="BackgroundImageFix" result="effect1_dropShadow_2142_332"/>
<feBlend mode="normal" in="SourceGraphic" in2="effect1_dropShadow_2142_332" result="shape"/>
</filter>
<filter id="filter1_d_2142_332" x="117.738" y="1023" width="888.262" height="46" filterUnits="userSpaceOnUse" color-interpolation-filters="sRGB">
<feFlood flood-opacity="0" result="BackgroundImageFix"/>
<feColorMatrix in="SourceAlpha" type="matrix" values="0 0 0 0 0 0 0 0 0 0 0 0 0 0 0 0 0 0 127 0" result="hardAlpha"/>
<feOffset dy="-4"/>
<feGaussianBlur stdDeviation="2"/>
<feComposite in2="hardAlpha" operator="out"/>
<feColorMatrix type="matrix" values="0 0 0 0 0 0 0 0 0 0 0 0 0 0 0 0 0 0 0.25 0"/>
<feBlend mode="normal" in2="BackgroundImageFix" result="effect1_dropShadow_2142_332"/>
<feBlend mode="normal" in="SourceGraphic" in2="effect1_dropShadow_2142_332" result="shape"/>
</filter>
<filter id="filter2_d_2142_332" x="68" y="121.756" width="46" height="901.484" filterUnits="userSpaceOnUse" color-interpolation-filters="sRGB">
<feFlood flood-opacity="0" result="BackgroundImageFix"/>
<feColorMatrix in="SourceAlpha" type="matrix" values="0 0 0 0 0 0 0 0 0 0 0 0 0 0 0 0 0 0 127 0" result="hardAlpha"/>
<feOffset dx="4" dy="4"/>
<feGaussianBlur stdDeviation="2"/>
<feComposite in2="hardAlpha" operator="out"/>
<feColorMatrix type="matrix" values="0 0 0 0 0 0 0 0 0 0 0 0 0 0 0 0 0 0 0.25 0"/>
<feBlend mode="normal" in2="BackgroundImageFix" result="effect1_dropShadow_2142_332"/>
<feBlend mode="normal" in="SourceGraphic" in2="effect1_dropShadow_2142_332" result="shape"/>
</filter>
<filter id="filter3_d_2142_332" x="1074" y="68" width="888.222" height="46" filterUnits="userSpaceOnUse" color-interpolation-filters="sRGB">
<feFlood flood-opacity="0" result="BackgroundImageFix"/>
<feColorMatrix in="SourceAlpha" type="matrix" values="0 0 0 0 0 0 0 0 0 0 0 0 0 0 0 0 0 0 127 0" result="hardAlpha"/>
<feOffset dy="4"/>
<feGaussianBlur stdDeviation="2"/>
<feComposite in2="hardAlpha" operator="out"/>
<feColorMatrix type="matrix" values="0 0 0 0 0 0 0 0 0 0 0 0 0 0 0 0 0 0 0.25 0"/>
<feBlend mode="normal" in2="BackgroundImageFix" result="effect1_dropShadow_2142_332"/>
<feBlend mode="normal" in="SourceGraphic" in2="effect1_dropShadow_2142_332" result="shape"/>
</filter>
<filter id="filter4_d_2142_332" x="1074" y="1023" width="888.262" height="46" filterUnits="userSpaceOnUse" color-interpolation-filters="sRGB">
<feFlood flood-opacity="0" result="BackgroundImageFix"/>
<feColorMatrix in="SourceAlpha" type="matrix" values="0 0 0 0 0 0 0 0 0 0 0 0 0 0 0 0 0 0 127 0" result="hardAlpha"/>
<feOffset dy="-4"/>
<feGaussianBlur stdDeviation="2"/>
<feComposite in2="hardAlpha" operator="out"/>
<feColorMatrix type="matrix" values="0 0 0 0 0 0 0 0 0 0 0 0 0 0 0 0 0 0 0.25 0"/>
<feBlend mode="normal" in2="BackgroundImageFix" result="effect1_dropShadow_2142_332"/>
<feBlend mode="normal" in="SourceGraphic" in2="effect1_dropShadow_2142_332" result="shape"/>
</filter>
<filter id="filter5_d_2142_332" x="1974" y="121.756" width="46" height="901.484" filterUnits="userSpaceOnUse" color-interpolation-filters="sRGB">
<feFlood flood-opacity="0" result="BackgroundImageFix"/>
<feColorMatrix in="SourceAlpha" type="matrix" values="0 0 0 0 0 0 0 0 0 0 0 0 0 0 0 0 0 0 127 0" result="hardAlpha"/>
<feOffset dx="4" dy="4"/>
<feGaussianBlur stdDeviation="2"/>
<feComposite in2="hardAlpha" operator="out"/>
<feColorMatrix type="matrix" values="0 0 0 0 0 0 0 0 0 0 0 0 0 0 0 0 0 0 0.25 0"/>
<feBlend mode="normal" in2="BackgroundImageFix" result="effect1_dropShadow_2142_332"/>
<feBlend mode="normal" in="SourceGraphic" in2="effect1_dropShadow_2142_332" result="shape"/>
</filter>
<radialGradient id="paint0_radial_2142_332" cx="0" cy="0" r="1" gradientUnits="userSpaceOnUse" gradientTransform="translate(106 106) rotate(90) scale(38)">
<stop offset="0.765"/>
<stop offset="1" stop-color="#303B3F"/>
</radialGradient>
<radialGradient id="paint1_radial_2142_332" cx="0" cy="0" r="1" gradientUnits="userSpaceOnUse" gradientTransform="translate(38 38) rotate(90) scale(38)">
<stop offset="0.765"/>
<stop offset="1" stop-color="#303B3F"/>
</radialGradient>
<radialGradient id="paint2_radial_2142_332" cx="0" cy="0" r="1" gradientUnits="userSpaceOnUse" gradientTransform="translate(1040 1030.5) rotate(180) scale(38 38.5)">
<stop offset="0.76"/>
<stop offset="1" stop-color="#303B3F"/>
</radialGradient>
<radialGradient id="paint3_radial_2142_332" cx="0" cy="0" r="1" gradientUnits="userSpaceOnUse" gradientTransform="translate(1040 106) rotate(180) scale(38)">
<stop offset="0.76"/>
<stop offset="1" stop-color="#303B3F"/>
</radialGradient>
<radialGradient id="paint4_radial_2142_332" cx="0" cy="0" r="1" gradientUnits="userSpaceOnUse" gradientTransform="translate(38 38) rotate(90) scale(38)">
<stop offset="0.765"/>
<stop offset="1" stop-color="#303B3F"/>
</radialGradient>
<radialGradient id="paint5_radial_2142_332" cx="0" cy="0" r="1" gradientUnits="userSpaceOnUse" gradientTransform="translate(1974 1031) rotate(90) scale(38)">
<stop offset="0.765"/>
<stop offset="1" stop-color="#303B3F"/>
</radialGradient>
<radialGradient id="paint6_radial_2142_332" cx="0" cy="0" r="1" gradientUnits="userSpaceOnUse" gradientTransform="translate(1040 1030.5) scale(38 38.5)">
<stop offset="0.76"/>
<stop offset="1" stop-color="#303B3F"/>
</radialGradient>
<radialGradient id="paint7_radial_2142_332" cx="0" cy="0" r="1" gradientUnits="userSpaceOnUse" gradientTransform="translate(1040 106) scale(38)">
<stop offset="0.76"/>
<stop offset="1" stop-color="#303B3F"/>
</radialGradient>
</defs>
</svg>
