<svg width="300" height="304" viewBox="0 0 300 304" fill="none" xmlns="http://www.w3.org/2000/svg">
<circle cx="150" cy="151" r="150" fill="url(#paint0_radial_2144_552)"/>
<path d="M143.469 151.416L156.568 266.713L156.542 300.845L153.579 266.975L143.469 151.416Z" fill="black" fill-opacity="0.4"/>
<path d="M144.005 153.65L195.748 257.514L207.398 289.597L193.029 258.782L144.005 153.65Z" fill="black" fill-opacity="0.4"/>
<path d="M144.264 154.445L228.41 234.348L250.33 260.511L226.289 236.469L144.264 154.445Z" fill="black" fill-opacity="0.4"/>
<path d="M146.095 154.463L252.494 200.768L282.041 217.856L251.226 203.487L146.095 154.463Z" fill="black" fill-opacity="0.4"/>
<path d="M149.276 156.459L265.096 163.58L298.705 169.532L264.834 166.569L149.276 156.459Z" fill="black" fill-opacity="0.4"/>
<path d="M9.05261 103.281L120.302 136.274L151.711 149.634L119.375 139.127L9.05261 103.281Z" fill="black" fill-opacity="0.4"/>
<path d="M151.065 157.361L262.336 124.44L295.954 118.538L263.112 127.338L151.065 157.361Z" fill="black" fill-opacity="0.4"/>
<path d="M149.584 142.469L34.2867 155.568L0.154654 155.543L34.0253 152.579L149.584 142.469Z" fill="black" fill-opacity="0.4"/>
<path d="M147.349 143.005L43.4855 194.748L11.4032 206.398L42.2177 192.029L147.349 143.005Z" fill="black" fill-opacity="0.4"/>
<path d="M146.555 143.265L66.6519 227.41L40.4889 249.331L64.5305 225.289L146.555 143.265Z" fill="black" fill-opacity="0.4"/>
<path d="M146.538 145.095L100.233 251.495L83.145 281.041L97.514 250.227L146.538 145.095Z" fill="black" fill-opacity="0.4"/>
<path d="M144.541 148.275L137.42 264.095L131.468 297.704L134.431 263.833L144.541 148.275Z" fill="black" fill-opacity="0.4"/>
<path d="M143.639 150.065L176.56 261.336L182.462 294.954L173.662 262.112L143.639 150.065Z" fill="black" fill-opacity="0.4"/>
<path d="M149.584 142.469L34.2867 155.568L0.154654 155.543L34.0253 152.579L149.584 142.469Z" fill="black" fill-opacity="0.4"/>
<path d="M147.349 143.005L43.4855 194.748L11.4032 206.398L42.2177 192.029L147.349 143.005Z" fill="black" fill-opacity="0.4"/>
<path d="M146.555 143.265L66.6519 227.41L40.4889 249.331L64.5305 225.289L146.555 143.265Z" fill="black" fill-opacity="0.4"/>
<path d="M146.538 145.095L100.233 251.495L83.145 281.041L97.514 250.227L146.538 145.095Z" fill="black" fill-opacity="0.4"/>
<path d="M144.541 148.275L137.42 264.095L131.468 297.704L134.431 263.833L144.541 148.275Z" fill="black" fill-opacity="0.4"/>
<path d="M143.639 150.065L176.56 261.336L182.462 294.954L173.662 262.112L143.639 150.065Z" fill="black" fill-opacity="0.4"/>
<path d="M156.498 150.429L143.399 35.1321L143.424 0.999991L146.388 34.8706L156.498 150.429Z" fill="black" fill-opacity="0.4"/>
<path d="M155.961 148.195L104.219 44.331L92.5684 12.2487L106.937 43.0631L155.961 148.195Z" fill="black" fill-opacity="0.4"/>
<path d="M155.702 147.4L71.5562 67.4973L49.6359 41.3344L73.6775 65.376L155.702 147.4Z" fill="black" fill-opacity="0.4"/>
<path d="M153.594 146.037L56.8511 81.9592L30.7207 60.0002L58.5719 79.5018L153.594 146.037Z" fill="black" fill-opacity="0.4"/>
<path d="M268.594 240.037L171.851 175.959L145.721 154L173.572 173.502L268.594 240.037Z" fill="black" fill-opacity="0.4"/>
<path d="M153.872 147.382L47.4723 101.078L17.9257 83.9896L48.7401 98.3586L153.872 147.382Z" fill="black" fill-opacity="0.4"/>
<path d="M293.27 190.288L179.99 165.136L147.726 154L180.716 162.225L293.27 190.288Z" fill="black" fill-opacity="0.4"/>
<path d="M150.691 145.386L34.8706 138.265L1.26147 132.313L35.1321 135.276L150.691 145.386Z" fill="black" fill-opacity="0.4"/>
<path d="M148.902 144.484L37.6307 177.405L4.01275 183.307L36.8542 174.507L148.902 144.484Z" fill="black" fill-opacity="0.4"/>
<path d="M150.383 159.376L265.68 146.277L299.812 146.303L265.941 149.266L150.383 159.376Z" fill="black" fill-opacity="0.4"/>
<path d="M152.617 158.84L256.481 107.097L288.564 95.4471L257.749 109.816L152.617 158.84Z" fill="black" fill-opacity="0.4"/>
<path d="M153.412 158.581L233.315 74.4349L259.478 52.5146L235.436 76.5562L153.412 158.581Z" fill="black" fill-opacity="0.4"/>
<path d="M153.429 156.75L199.734 50.3504L216.822 20.8038L202.453 51.6183L153.429 156.75Z" fill="black" fill-opacity="0.4"/>
<path d="M155.426 153.57L162.547 37.7503L168.499 4.14111L165.536 38.0117L155.426 153.57Z" fill="black" fill-opacity="0.4"/>
<path d="M156.328 151.78L123.407 40.5093L117.505 6.89141L126.305 39.7329L156.328 151.78Z" fill="black" fill-opacity="0.4"/>
<path d="M150.383 159.376L265.68 146.277L299.812 146.303L265.941 149.266L150.383 159.376Z" fill="black" fill-opacity="0.4"/>
<path d="M152.617 158.84L256.481 107.097L288.564 95.4471L257.749 109.816L152.617 158.84Z" fill="black" fill-opacity="0.4"/>
<path d="M153.412 158.581L233.315 74.4349L259.478 52.5146L235.436 76.5562L153.412 158.581Z" fill="black" fill-opacity="0.4"/>
<path d="M153.429 156.75L199.734 50.3504L216.822 20.8038L202.453 51.6183L153.429 156.75Z" fill="black" fill-opacity="0.4"/>
<path d="M155.426 153.57L162.547 37.7503L168.499 4.14111L165.536 38.0117L155.426 153.57Z" fill="black" fill-opacity="0.4"/>
<path d="M156.328 151.78L123.407 40.5093L117.505 6.89141L126.305 39.7329L156.328 151.78Z" fill="black" fill-opacity="0.4"/>
<path d="M228.032 279.207L164.017 182.423L148.544 152L166.561 180.833L228.032 279.207Z" fill="black" fill-opacity="0.4"/>
<g filter="url(#filter0_f_2144_552)">
<ellipse cx="152" cy="152" rx="17" ry="143" fill="url(#paint1_linear_2144_552)"/>
<path d="M152 297.5C153.346 297.5 154.481 296.915 155.362 296.163C156.226 295.424 156.956 294.438 157.588 293.351C158.851 291.176 159.986 288.13 161.024 284.439C163.11 277.017 164.96 266.396 166.503 253.411C169.595 227.408 171.5 191.555 171.5 152C171.5 112.445 169.595 76.5918 166.503 50.5886C164.96 37.604 163.11 26.9831 161.024 19.5612C159.986 15.8695 158.851 12.8241 157.588 10.6494C156.956 9.562 156.226 8.57575 155.362 7.83745C154.481 7.08458 153.346 6.5 152 6.5C150.654 6.5 149.519 7.08458 148.638 7.83745C147.774 8.57575 147.044 9.562 146.412 10.6494C145.149 12.8241 144.014 15.8695 142.976 19.5612C140.89 26.9831 139.04 37.604 137.497 50.5886C134.405 76.5918 132.5 112.445 132.5 152C132.5 191.555 134.405 227.408 137.497 253.411C139.04 266.396 140.89 277.017 142.976 284.439C144.014 288.13 145.149 291.176 146.412 293.351C147.044 294.438 147.774 295.424 148.638 296.163C149.519 296.915 150.654 297.5 152 297.5Z" stroke="#FCE562" stroke-width="5"/>
</g>
<defs>
<filter id="filter0_f_2144_552" x="126" y="0" width="52" height="304" filterUnits="userSpaceOnUse" color-interpolation-filters="sRGB">
<feFlood flood-opacity="0" result="BackgroundImageFix"/>
<feBlend mode="normal" in="SourceGraphic" in2="BackgroundImageFix" result="shape"/>
<feGaussianBlur stdDeviation="2" result="effect1_foregroundBlur_2144_552"/>
</filter>
<radialGradient id="paint0_radial_2144_552" cx="0" cy="0" r="1" gradientUnits="userSpaceOnUse" gradientTransform="translate(150 151) rotate(90) scale(150)">
<stop stop-color="#B20900"/>
<stop offset="1" stop-color="#E77400"/>
</radialGradient>
<linearGradient id="paint1_linear_2144_552" x1="152" y1="9" x2="152" y2="295" gradientUnits="userSpaceOnUse">
<stop stop-color="#261118" stop-opacity="0.9"/>
<stop offset="0.5" stop-color="#261118"/>
<stop offset="1" stop-color="#261118" stop-opacity="0.9"/>
</linearGradient>
</defs>
</svg>
