<svg width="300" height="300" viewBox="0 0 300 300" fill="none" xmlns="http://www.w3.org/2000/svg">
<rect x="5" y="5" width="290" height="290" rx="5" fill="white" stroke="#643E30" stroke-width="10"/>
<path d="M152.631 46.8144L236.484 214.686C237.646 217.013 235.954 219.75 233.353 219.75H65.6473C63.046 219.75 61.3538 217.013 62.5161 214.686L146.369 46.8144C147.658 44.2331 151.342 44.2331 152.631 46.8144Z" fill="white" stroke="#C62323" stroke-width="13"/>
<path d="M136.874 108.146C138.589 105.111 142.195 103.692 145.519 104.744L164.46 110.736C168.65 112.061 171.339 116.139 170.908 120.511V120.511L170.719 122.434C170.436 125.309 167.578 127.194 164.824 126.323V126.323L141.07 118.808C136.601 117.394 134.567 112.226 136.874 108.146V108.146Z" fill="black"/>
<path d="M169.587 129.853L170.879 120.723L164.364 128.2L169.587 129.853Z" fill="black"/>
<path d="M132 117.233L136.5 109.5L140.215 119.832L132 117.233Z" fill="black"/>
<path d="M139.129 108.838C140.448 106.699 143.051 105.731 145.446 106.489L165.403 112.802C167.798 113.56 169.371 115.849 169.22 118.357V118.357C169.004 121.917 165.499 124.326 162.098 123.25L142.141 116.937C138.74 115.861 137.258 111.874 139.129 108.838V108.838Z" fill="white"/>
<rect x="130.113" y="114.9" width="44.675" height="13.0653" rx="6" transform="rotate(17.5547 130.113 114.9)" fill="black"/>
<path d="M132.708 127.656L137.53 129.181L135.369 136.013C134.948 137.344 133.527 138.082 132.195 137.661V137.661C130.864 137.24 130.126 135.819 130.547 134.487L132.708 127.656Z" fill="black"/>
<path d="M158.827 135.919L163.649 137.444L161.488 144.275C161.067 145.607 159.646 146.345 158.315 145.924V145.924C156.983 145.502 156.245 144.081 156.666 142.75L158.827 135.919Z" fill="black"/>
<path d="M133.447 135.687C109.824 139.535 132.589 153.023 134.799 166.577C136.451 176.707 120.398 173.144 102.768 184.699" stroke="black" stroke-width="6"/>
<path d="M158.817 144.012C135.194 147.86 129.32 151.193 160.169 174.901C175.259 185.331 145.768 181.468 128.138 193.024" stroke="black" stroke-width="6"/>
</svg>
