<svg width="3000" height="2000" viewBox="0 0 3000 2000" fill="none" xmlns="http://www.w3.org/2000/svg">
<rect width="3000" height="2000" fill="#643E30"/>
<rect width="3000" height="2000" fill="url(#paint0_radial_2165_19)" fill-opacity="0.2"/>
<path d="M746.963 862.409C753.701 861.184 757.07 857.815 757.07 852.302C757.07 846.585 755.232 840.255 751.557 833.313C748.086 826.166 742.879 819.428 735.937 813.099C717.765 796.764 693.161 788.597 662.125 788.597C646.812 788.597 632.519 791.149 619.247 796.254C605.159 789.107 593.929 777.775 585.557 762.258C577.186 746.74 573 729.997 573 712.029C573 665.067 592.601 628.825 631.804 603.302C665.494 581.455 707.045 570.531 756.457 570.531C793.21 570.531 824.143 574.513 849.258 582.476C874.372 590.235 894.892 600.24 910.818 612.491C915.514 625.967 917.862 639.953 917.862 654.45C917.862 668.947 915.923 682.116 912.043 693.959C908.164 705.801 902.549 715.296 895.198 722.442C888.256 717.338 875.699 712.131 857.527 706.822C839.355 701.514 822.816 698.859 807.911 698.859C793.006 698.859 783.001 699.778 777.896 701.616C772.996 703.453 770.546 706.312 770.546 710.191C770.546 712.029 770.852 713.765 771.464 715.398C778.611 713.56 787.799 712.642 799.029 712.642C838.844 712.642 871.309 722.034 896.423 740.819C926.03 763.279 940.833 796.968 940.833 841.888C940.833 881.5 924.805 914.373 892.748 940.508C858.037 968.481 811.382 982.467 752.782 982.467C720.521 982.467 692.548 980.017 668.863 975.117C645.178 970.421 622.106 962.049 599.646 950.002C584.332 927.747 576.675 905.185 576.675 882.316C576.675 859.244 584.536 840.153 600.258 825.043C615.98 809.934 635.275 802.379 658.144 802.379C681.216 802.379 700.001 807.075 714.498 816.468C729.199 825.86 740.02 841.174 746.963 862.409Z" fill="#303B3F"/>
<path d="M1135.32 953.678V906.818C1092.44 904.164 1071 897.63 1071 887.217C1071 884.358 1071.82 882.112 1073.45 880.479C1078.35 882.725 1087.84 885.379 1101.93 888.442C1116.22 891.3 1129.6 892.73 1142.05 892.73C1196.77 892.73 1239.55 879.458 1270.38 852.914C1302.44 824.941 1318.47 785.841 1318.47 735.612C1318.47 685.179 1300.7 645.057 1265.18 615.247C1229.65 585.436 1181.97 570.531 1122.15 570.531C1078.86 570.531 1040.37 576.248 1006.68 587.682C990.959 592.991 978.606 598.912 969.622 605.446C960.843 611.98 956.453 618.514 956.453 625.048V916.006C956.453 937.241 965.641 953.474 984.017 964.704C1000.15 974.504 1020.87 979.405 1046.19 979.405C1063.95 979.405 1081 977.057 1097.34 972.36C1113.67 967.46 1126.33 961.232 1135.32 953.678Z" fill="#303B3F"/>
<path d="M1433.01 961.335C1463.44 976.24 1496.82 983.693 1533.16 983.693C1591.76 983.693 1638.52 967.256 1673.44 934.383C1729.62 894.535 1721.64 897.478 1769.5 934.383C1781.25 945.151 1794.33 954.135 1808.73 961.335C1839.15 976.24 1872.53 983.693 1908.88 983.693C1967.48 983.693 2014.24 967.256 2049.15 934.383C2087.54 898.038 2106.73 845.36 2106.73 776.346C2106.73 714.275 2088.76 664.251 2052.83 626.273C2017.09 588.091 1968.5 569 1907.04 569C1850.48 569 1804.24 585.641 1768.3 618.922C1713.11 663.86 1720.63 662.486 1669.83 618.922C1634.87 585.641 1588.71 569 1531.33 569C1474.77 569 1428.52 585.641 1392.58 618.922C1352.16 656.696 1331.94 709.171 1331.94 776.346C1331.94 822.695 1341.23 861.388 1359.81 892.423C1378.39 923.255 1402.79 946.225 1433.01 961.335Z" fill="#19C218"/>
<path d="M2198.76 974.198C2176.09 974.198 2158.53 968.175 2146.08 956.128C2133.83 944.081 2127.7 925.909 2127.7 901.611V602.077C2138.52 592.889 2151.69 585.845 2167.21 580.944C2182.93 575.84 2199.17 573.288 2215.91 573.288C2240.61 573.288 2261.54 579.413 2278.69 591.664C2297.27 605.548 2306.56 624.741 2306.56 649.243V816.774C2295.13 817.795 2283.9 821.062 2272.88 826.575C2261.85 831.883 2256.34 837.396 2256.34 843.113C2256.34 846.584 2258.28 849.545 2262.16 851.995C2282.37 835.048 2312.38 826.575 2352.2 826.575H2424.79C2438.26 850.26 2445 874.455 2445 899.161C2445 911.412 2442.86 924.99 2438.57 939.895C2434.28 954.801 2428.56 966.235 2421.42 974.198H2198.76Z" fill="#303B3F"/>
<path d="M994.258 1258.96C994.401 1259.07 994.813 1259.12 995.493 1259.12C996.174 1259.12 996.693 1258.85 997.051 1258.32C997.409 1257.78 997.588 1256.9 997.588 1255.68V1251.6C997.588 1250.31 997.427 1249.4 997.104 1248.86C996.818 1248.29 996.317 1248 995.601 1248C994.92 1248 994.455 1248.07 994.204 1248.22C994.24 1248.4 994.258 1248.7 994.258 1249.13V1258.96ZM995.601 1283.24V1291.46C994.025 1292.78 991.805 1293.87 988.94 1294.73C986.076 1295.56 983.086 1295.97 979.971 1295.97C975.531 1295.97 971.896 1295.11 969.067 1293.39C965.845 1291.42 964.233 1288.57 964.233 1284.85V1233.82C964.233 1232.68 965.003 1231.53 966.543 1230.39C968.118 1229.24 970.285 1228.2 973.042 1227.27C978.95 1225.27 985.7 1224.26 993.291 1224.26C1003.78 1224.26 1012.14 1226.88 1018.37 1232.1C1024.6 1237.33 1027.72 1244.37 1027.72 1253.21C1027.72 1262.02 1024.91 1268.88 1019.29 1273.78C1013.88 1278.44 1006.38 1280.77 996.782 1280.77C994.598 1280.77 992.253 1280.52 989.746 1280.01C987.275 1279.48 985.61 1279.01 984.751 1278.62C984.465 1278.9 984.321 1279.3 984.321 1279.8C984.321 1281.63 988.081 1282.77 995.601 1283.24ZM1060.11 1256.81C1060.25 1256.92 1060.66 1256.97 1061.34 1256.97C1062.02 1256.97 1062.54 1256.7 1062.9 1256.17C1063.26 1255.63 1063.44 1254.75 1063.44 1253.54V1251.6C1063.44 1250.31 1063.28 1249.4 1062.95 1248.86C1062.67 1248.29 1062.17 1248 1061.45 1248C1060.77 1248 1060.3 1248.07 1060.05 1248.22C1060.09 1248.4 1060.11 1248.7 1060.11 1249.13V1256.81ZM1087.82 1269.06L1097.11 1278.56C1096.47 1284.15 1094.7 1288.45 1091.8 1291.46C1088.93 1294.46 1084.96 1295.97 1079.87 1295.97C1076.04 1295.97 1072.71 1295.05 1069.88 1293.23C1066.27 1290.94 1063.56 1287.28 1061.77 1282.27L1059.84 1277.01C1058.33 1276.97 1056.44 1276.77 1054.15 1276.42C1053.86 1276.7 1053.72 1277.1 1053.72 1277.6C1053.72 1278.56 1055.17 1279.14 1058.07 1279.32L1061.13 1287.05V1291.62C1057.01 1294.52 1051.73 1295.97 1045.28 1295.97C1040.66 1295.97 1036.98 1295.02 1034.22 1293.12C1031.46 1291.22 1030.08 1288.47 1030.08 1284.85V1233.82C1030.08 1232.25 1031.53 1230.73 1034.43 1229.26C1037.33 1227.75 1041.13 1226.55 1045.82 1225.66C1050.51 1224.73 1055.2 1224.26 1059.89 1224.26C1070.63 1224.26 1079.03 1226.46 1085.08 1230.87C1091.46 1235.49 1094.64 1241.99 1094.64 1250.37C1094.64 1255.16 1093.28 1259.28 1090.56 1262.72C1087.88 1266.12 1084.47 1268.48 1080.36 1269.81C1080.36 1270.96 1081.04 1271.53 1082.4 1271.53C1083.79 1271.53 1085.6 1270.7 1087.82 1269.06ZM1123.33 1225.71H1154.32C1155.35 1227.43 1156.12 1229.31 1156.63 1231.35C1157.13 1233.36 1157.38 1235.17 1157.38 1236.78C1157.38 1240.39 1156.66 1243.12 1155.23 1244.94C1153.83 1246.77 1151.86 1247.68 1149.32 1247.68H1127.68C1126.35 1247.68 1125.69 1248.2 1125.69 1249.24V1249.67C1125.69 1249.88 1125.72 1250.03 1125.8 1250.1H1151.47C1152.11 1251.21 1152.67 1252.6 1153.13 1254.29C1153.56 1256.11 1153.78 1257.74 1153.78 1259.17C1153.78 1263.44 1152.99 1266.77 1151.42 1269.17H1139.76C1134.32 1269.17 1130.63 1269.38 1128.7 1269.81C1126.76 1270.2 1125.56 1270.54 1125.1 1270.83C1124.63 1271.15 1124.4 1271.56 1124.4 1272.07C1124.4 1272.57 1124.65 1272.96 1125.15 1273.25C1127.01 1272.64 1128.96 1272.21 1131.01 1271.96C1133.69 1271.71 1136.61 1271.58 1139.76 1271.58H1154.85C1157.04 1274.66 1158.13 1278.37 1158.13 1282.7C1158.13 1285.14 1157.83 1287.46 1157.22 1289.68C1156.61 1291.9 1155.69 1293.69 1154.48 1295.05H1114.25C1109.81 1295.05 1106.25 1293.98 1103.56 1291.83C1100.62 1289.54 1099.16 1286.17 1099.16 1281.73V1230.65C1099.16 1228.94 1101.12 1227.68 1105.06 1226.89C1109 1226.11 1115.09 1225.71 1123.33 1225.71ZM1189.93 1275.45C1191.11 1275.23 1191.7 1274.64 1191.7 1273.68C1191.7 1272.67 1191.38 1271.56 1190.73 1270.35C1190.12 1269.09 1189.21 1267.91 1187.99 1266.8C1184.81 1263.94 1180.49 1262.5 1175.05 1262.5C1172.36 1262.5 1169.86 1262.95 1167.53 1263.85C1165.06 1262.59 1163.09 1260.61 1161.62 1257.89C1160.15 1255.16 1159.42 1252.23 1159.42 1249.08C1159.42 1240.84 1162.86 1234.49 1169.73 1230.01C1175.64 1226.18 1182.93 1224.26 1191.59 1224.26C1198.04 1224.26 1203.46 1224.96 1207.87 1226.36C1212.27 1227.72 1215.87 1229.47 1218.66 1231.62C1219.49 1233.98 1219.9 1236.44 1219.9 1238.98C1219.9 1241.52 1219.56 1243.83 1218.88 1245.91C1218.2 1247.99 1217.21 1249.65 1215.92 1250.9C1214.71 1250.01 1212.5 1249.1 1209.32 1248.16C1206.13 1247.23 1203.23 1246.77 1200.62 1246.77C1198 1246.77 1196.25 1246.93 1195.35 1247.25C1194.49 1247.57 1194.06 1248.07 1194.06 1248.75C1194.06 1249.08 1194.12 1249.38 1194.22 1249.67C1195.48 1249.35 1197.09 1249.18 1199.06 1249.18C1206.04 1249.18 1211.73 1250.83 1216.14 1254.13C1221.33 1258.06 1223.93 1263.97 1223.93 1271.85C1223.93 1278.8 1221.11 1284.56 1215.49 1289.15C1209.41 1294.05 1201.22 1296.5 1190.95 1296.5C1185.29 1296.5 1180.38 1296.07 1176.23 1295.21C1172.08 1294.39 1168.03 1292.92 1164.09 1290.81C1161.41 1286.91 1160.06 1282.95 1160.06 1278.94C1160.06 1274.89 1161.44 1271.55 1164.2 1268.9C1166.96 1266.25 1170.34 1264.92 1174.35 1264.92C1178.4 1264.92 1181.69 1265.75 1184.23 1267.39C1186.81 1269.04 1188.71 1271.73 1189.93 1275.45ZM1254.7 1275.45C1255.88 1275.23 1256.47 1274.64 1256.47 1273.68C1256.47 1272.67 1256.15 1271.56 1255.51 1270.35C1254.9 1269.09 1253.99 1267.91 1252.77 1266.8C1249.58 1263.94 1245.27 1262.5 1239.82 1262.5C1237.14 1262.5 1234.63 1262.95 1232.3 1263.85C1229.83 1262.59 1227.86 1260.61 1226.4 1257.89C1224.93 1255.16 1224.19 1252.23 1224.19 1249.08C1224.19 1240.84 1227.63 1234.49 1234.51 1230.01C1240.42 1226.18 1247.7 1224.26 1256.37 1224.26C1262.81 1224.26 1268.24 1224.96 1272.64 1226.36C1277.05 1227.72 1280.64 1229.47 1283.44 1231.62C1284.26 1233.98 1284.67 1236.44 1284.67 1238.98C1284.67 1241.52 1284.33 1243.83 1283.65 1245.91C1282.97 1247.99 1281.99 1249.65 1280.7 1250.9C1279.48 1250.01 1277.28 1249.1 1274.09 1248.16C1270.9 1247.23 1268 1246.77 1265.39 1246.77C1262.78 1246.77 1261.02 1246.93 1260.13 1247.25C1259.27 1247.57 1258.84 1248.07 1258.84 1248.75C1258.84 1249.08 1258.89 1249.38 1259 1249.67C1260.25 1249.35 1261.86 1249.18 1263.83 1249.18C1270.82 1249.18 1276.51 1250.83 1280.91 1254.13C1286.11 1258.06 1288.7 1263.97 1288.7 1271.85C1288.7 1278.8 1285.89 1284.56 1280.27 1289.15C1274.18 1294.05 1266 1296.5 1255.72 1296.5C1250.07 1296.5 1245.16 1296.07 1241.01 1295.21C1236.85 1294.39 1232.81 1292.92 1228.87 1290.81C1226.18 1286.91 1224.84 1282.95 1224.84 1278.94C1224.84 1274.89 1226.22 1271.55 1228.97 1268.9C1231.73 1266.25 1235.12 1264.92 1239.13 1264.92C1243.17 1264.92 1246.47 1265.75 1249.01 1267.39C1251.59 1269.04 1253.48 1271.73 1254.7 1275.45ZM1343.65 1275.45C1344.83 1275.23 1345.42 1274.64 1345.42 1273.68C1345.42 1272.67 1345.1 1271.56 1344.45 1270.35C1343.84 1269.09 1342.93 1267.91 1341.71 1266.8C1338.53 1263.94 1334.21 1262.5 1328.77 1262.5C1326.08 1262.5 1323.58 1262.95 1321.25 1263.85C1318.78 1262.59 1316.81 1260.61 1315.34 1257.89C1313.87 1255.16 1313.14 1252.23 1313.14 1249.08C1313.14 1240.84 1316.58 1234.49 1323.45 1230.01C1329.36 1226.18 1336.65 1224.26 1345.31 1224.26C1351.76 1224.26 1357.18 1224.96 1361.59 1226.36C1365.99 1227.72 1369.59 1229.47 1372.38 1231.62C1373.21 1233.98 1373.62 1236.44 1373.62 1238.98C1373.62 1241.52 1373.28 1243.83 1372.6 1245.91C1371.92 1247.99 1370.93 1249.65 1369.64 1250.9C1368.43 1250.01 1366.22 1249.1 1363.04 1248.16C1359.85 1247.23 1356.95 1246.77 1354.34 1246.77C1351.72 1246.77 1349.97 1246.93 1349.07 1247.25C1348.21 1247.57 1347.78 1248.07 1347.78 1248.75C1347.78 1249.08 1347.84 1249.38 1347.94 1249.67C1349.2 1249.35 1350.81 1249.18 1352.78 1249.18C1359.76 1249.18 1365.45 1250.83 1369.86 1254.13C1375.05 1258.06 1377.65 1263.97 1377.65 1271.85C1377.65 1278.8 1374.84 1284.56 1369.21 1289.15C1363.13 1294.05 1354.94 1296.5 1344.67 1296.5C1339.01 1296.5 1334.1 1296.07 1329.95 1295.21C1325.8 1294.39 1321.75 1292.92 1317.81 1290.81C1315.13 1286.91 1313.78 1282.95 1313.78 1278.94C1313.78 1274.89 1315.16 1271.55 1317.92 1268.9C1320.68 1266.25 1324.06 1264.92 1328.07 1264.92C1332.12 1264.92 1335.41 1265.75 1337.95 1267.39C1340.53 1269.04 1342.43 1271.73 1343.65 1275.45ZM1410.41 1258.96C1410.55 1259.07 1410.97 1259.12 1411.65 1259.12C1412.33 1259.12 1412.85 1258.85 1413.2 1258.32C1413.56 1257.78 1413.74 1256.9 1413.74 1255.68V1251.6C1413.74 1250.31 1413.58 1249.4 1413.26 1248.86C1412.97 1248.29 1412.47 1248 1411.75 1248C1411.07 1248 1410.61 1248.07 1410.36 1248.22C1410.39 1248.4 1410.41 1248.7 1410.41 1249.13V1258.96ZM1411.75 1283.24V1291.46C1410.18 1292.78 1407.96 1293.87 1405.09 1294.73C1402.23 1295.56 1399.24 1295.97 1396.12 1295.97C1391.68 1295.97 1388.05 1295.11 1385.22 1293.39C1382 1291.42 1380.39 1288.57 1380.39 1284.85V1233.82C1380.39 1232.68 1381.16 1231.53 1382.7 1230.39C1384.27 1229.24 1386.44 1228.2 1389.19 1227.27C1395.1 1225.27 1401.85 1224.26 1409.44 1224.26C1419.93 1224.26 1428.3 1226.88 1434.53 1232.1C1440.76 1237.33 1443.87 1244.37 1443.87 1253.21C1443.87 1262.02 1441.06 1268.88 1435.44 1273.78C1430.03 1278.44 1422.53 1280.77 1412.93 1280.77C1410.75 1280.77 1408.4 1280.52 1405.9 1280.01C1403.43 1279.48 1401.76 1279.01 1400.9 1278.62C1400.62 1278.9 1400.47 1279.3 1400.47 1279.8C1400.47 1281.63 1404.23 1282.77 1411.75 1283.24ZM1475.19 1259.71C1475.47 1260 1475.92 1260.14 1476.53 1260.14C1477.14 1260.14 1477.66 1260.02 1478.09 1259.77C1477.15 1254.32 1476.53 1251.1 1476.21 1250.1C1475.81 1249.06 1475.22 1248.54 1474.43 1248.54C1474.08 1248.54 1473.65 1248.65 1473.14 1248.86L1475.19 1259.71ZM1464.55 1275.83C1464.19 1276.33 1464.01 1276.79 1464.01 1277.22C1464.01 1278.26 1464.98 1279.14 1466.91 1279.85C1468.88 1280.53 1471.26 1280.96 1474.06 1281.14C1474.52 1286.3 1475.02 1289.24 1475.56 1289.95C1474.88 1291.28 1473 1292.62 1469.92 1293.98C1466.84 1295.3 1463.37 1295.97 1459.5 1295.97C1454.38 1295.97 1450 1294.87 1446.34 1292.69C1442.69 1290.47 1440.86 1287.62 1440.86 1284.15C1440.86 1283.22 1440.95 1282.4 1441.13 1281.68L1452.57 1230.55C1455.44 1228.72 1458.86 1227.29 1462.83 1226.25C1466.81 1225.21 1470.94 1224.69 1475.24 1224.69C1481.4 1224.69 1486.66 1225.73 1491.03 1227.81C1496.01 1230.17 1499.03 1233.59 1500.11 1238.07L1512.35 1288.72C1508.63 1293.55 1502.56 1295.97 1494.15 1295.97C1490.06 1295.97 1486.61 1295.23 1483.78 1293.76C1480.95 1292.3 1479.3 1290.2 1478.84 1287.48L1477.66 1280.93C1479.8 1280.89 1481.88 1280.48 1483.89 1279.69C1485.89 1278.9 1486.89 1278.08 1486.89 1277.22C1486.89 1276.65 1486.66 1276.18 1486.2 1275.83C1484.84 1276.79 1483.17 1277.53 1481.2 1278.03C1479.23 1278.53 1477.41 1278.78 1475.72 1278.78C1470.89 1278.78 1467.16 1277.79 1464.55 1275.83ZM1545.92 1273.62C1546.28 1273.62 1546.6 1273.53 1546.89 1273.35V1268.47C1549.32 1266.82 1552.73 1265.48 1557.09 1264.44C1561.5 1263.4 1565.78 1262.88 1569.93 1262.88C1571.83 1264.81 1573.4 1267.71 1574.66 1271.58C1575.95 1275.41 1576.63 1278.89 1576.7 1282C1575.98 1283.43 1574.77 1284.97 1573.05 1286.62C1571.36 1288.27 1569.32 1289.79 1566.92 1291.19C1560.98 1294.7 1554.16 1296.45 1546.46 1296.45C1535.43 1296.45 1526.75 1293.25 1520.41 1286.84C1513.86 1280.35 1510.58 1271.39 1510.58 1259.93C1510.58 1248.43 1514.16 1239.41 1521.32 1232.86C1524.47 1229.92 1528.14 1227.72 1532.33 1226.25C1536.52 1224.75 1540.93 1223.99 1545.55 1223.99C1554.57 1223.99 1561.96 1226.18 1567.73 1230.55C1573.49 1234.92 1576.38 1240.3 1576.38 1246.71C1576.38 1251.55 1574.89 1255.13 1571.92 1257.46C1568.95 1259.75 1564.92 1260.89 1559.83 1260.89C1557.04 1260.89 1554.23 1260.21 1551.4 1258.85C1548.57 1257.46 1546.89 1256.15 1546.35 1254.93C1546.35 1252 1546.41 1249.69 1546.51 1248C1546.44 1247.97 1546.32 1247.95 1546.14 1247.95H1545.76C1545.22 1247.95 1544.79 1248.11 1544.47 1248.43C1544.19 1248.72 1543.92 1249.35 1543.67 1250.31C1543.45 1251.28 1543.34 1253.91 1543.34 1258.21C1543.34 1268.48 1544.2 1273.62 1545.92 1273.62ZM1603.93 1225.71H1634.92C1635.96 1227.43 1636.73 1229.31 1637.23 1231.35C1637.73 1233.36 1637.98 1235.17 1637.98 1236.78C1637.98 1240.39 1637.27 1243.12 1635.83 1244.94C1634.44 1246.77 1632.47 1247.68 1629.93 1247.68H1608.28C1606.96 1247.68 1606.29 1248.2 1606.29 1249.24V1249.67C1606.29 1249.88 1606.33 1250.03 1606.4 1250.1H1632.08C1632.72 1251.21 1633.27 1252.6 1633.74 1254.29C1634.17 1256.11 1634.38 1257.74 1634.38 1259.17C1634.38 1263.44 1633.6 1266.77 1632.02 1269.17H1620.37C1614.92 1269.17 1611.24 1269.38 1609.3 1269.81C1607.37 1270.2 1606.17 1270.54 1605.7 1270.83C1605.24 1271.15 1605 1271.56 1605 1272.07C1605 1272.57 1605.26 1272.96 1605.76 1273.25C1607.62 1272.64 1609.57 1272.21 1611.61 1271.96C1614.3 1271.71 1617.22 1271.58 1620.37 1271.58H1635.46C1637.64 1274.66 1638.74 1278.37 1638.74 1282.7C1638.74 1285.14 1638.43 1287.46 1637.82 1289.68C1637.21 1291.9 1636.3 1293.69 1635.08 1295.05H1594.85C1590.41 1295.05 1586.85 1293.98 1584.17 1291.83C1581.23 1289.54 1579.76 1286.17 1579.76 1281.73V1230.65C1579.76 1228.94 1581.73 1227.68 1585.67 1226.89C1589.61 1226.11 1595.69 1225.71 1603.93 1225.71ZM1711.67 1253.16V1290.92C1710.03 1292.35 1707.83 1293.55 1705.07 1294.52C1702.31 1295.48 1698.96 1295.97 1695.02 1295.97C1691.09 1295.97 1687.74 1295.09 1684.98 1293.33C1681.87 1291.44 1680.31 1288.75 1680.31 1285.28V1250.69H1667.79C1665.21 1247 1663.93 1242.97 1663.93 1238.6C1663.93 1235.63 1664.39 1233.05 1665.32 1230.87C1666.29 1228.65 1667.47 1226.93 1668.87 1225.71H1724.4C1725.44 1227.32 1726.3 1229.28 1726.98 1231.57C1727.66 1233.86 1728 1236.13 1728 1238.39C1728 1242.61 1727.07 1245.73 1725.21 1247.73C1723.35 1249.7 1720.84 1250.69 1717.69 1250.69H1701.95C1701.85 1250.94 1701.79 1251.21 1701.79 1251.49C1701.79 1252.14 1702.17 1252.57 1702.92 1252.78C1703.71 1253.03 1705.39 1253.16 1707.97 1253.16H1711.67ZM1764.58 1257.94C1764.58 1254.36 1764.42 1251.91 1764.1 1250.58C1763.77 1249.22 1763.18 1248.54 1762.32 1248.54C1761.79 1248.54 1761.3 1248.72 1760.87 1249.08C1760.95 1249.72 1761.05 1250.58 1761.2 1251.66C1761.34 1252.73 1761.41 1255.02 1761.41 1258.53V1262.02C1761.41 1264.46 1761.36 1266.23 1761.25 1267.34C1761.14 1268.45 1761.05 1269.4 1760.98 1270.19C1760.95 1270.62 1760.91 1271.04 1760.87 1271.47C1761.3 1271.83 1761.79 1272.01 1762.32 1272.01C1763.18 1272.01 1763.77 1271.35 1764.1 1270.02C1764.42 1268.66 1764.58 1266.19 1764.58 1262.61V1257.94ZM1762.43 1296.72C1756.06 1296.72 1750.2 1295.41 1744.87 1292.8C1739.57 1290.15 1735.29 1286.12 1732.03 1280.71C1728.77 1275.27 1727.14 1268.48 1727.14 1260.36C1727.14 1248.58 1730.69 1239.37 1737.78 1232.75C1744.08 1226.91 1752.19 1223.99 1762.11 1223.99C1772.89 1223.99 1781.41 1227.34 1787.68 1234.04C1793.98 1240.7 1797.13 1249.47 1797.13 1260.36C1797.13 1272.46 1793.76 1281.7 1787.03 1288.07C1780.91 1293.84 1772.71 1296.72 1762.43 1296.72ZM1854.12 1266V1273.19C1854.37 1273.44 1854.78 1273.57 1855.35 1273.57C1855.92 1273.57 1856.34 1273.37 1856.59 1272.98C1856.84 1272.58 1856.96 1271.9 1856.96 1270.94V1265.46C1856.96 1262.02 1856.82 1259.75 1856.53 1258.64C1856.25 1257.49 1855.71 1256.92 1854.92 1256.92C1854.42 1256.92 1853.99 1257.1 1853.63 1257.46C1853.96 1261 1854.12 1263.85 1854.12 1266ZM1836.98 1242.85C1836.98 1243.92 1837.61 1244.46 1838.86 1244.46C1841.01 1241.09 1843.54 1238.6 1846.44 1236.99C1849.34 1235.35 1852.83 1234.52 1856.91 1234.52C1860.99 1234.52 1864.72 1235.17 1868.08 1236.46C1872.7 1238.28 1876.35 1241.22 1879.04 1245.26C1882.4 1250.38 1884.09 1257.1 1884.09 1265.41C1884.09 1274.75 1881.58 1282.02 1876.57 1287.21C1871.59 1292.37 1864.68 1294.95 1855.83 1294.95C1850.89 1294.95 1847.04 1294.34 1844.29 1293.12C1844.04 1293.26 1843.91 1293.57 1843.91 1294.03C1843.91 1295.11 1844.73 1295.88 1846.38 1296.34C1848.06 1296.81 1850.95 1297.15 1855.03 1297.36V1311.65C1851.34 1313.3 1847.29 1314.12 1842.89 1314.12C1837.7 1314.12 1833.78 1313.17 1831.13 1311.27C1828.12 1309.23 1826.62 1306.1 1826.62 1301.88V1258.64C1824.5 1255.67 1823.45 1251.98 1823.45 1247.57C1823.45 1245.78 1823.73 1243.83 1824.31 1241.72C1824.88 1239.61 1825.65 1237.8 1826.62 1236.29H1834.24C1837.36 1236.29 1839.74 1236.72 1841.39 1237.58C1838.45 1239.77 1836.98 1241.52 1836.98 1242.85ZM1914.49 1230.17V1267.93C1914.49 1273.26 1915.78 1276.74 1918.35 1278.35C1918.39 1278.53 1918.41 1278.87 1918.41 1279.37V1280.34C1918.41 1285.46 1917.1 1289.34 1914.49 1291.99C1911.91 1294.64 1908.24 1295.97 1903.48 1295.97C1898.71 1295.97 1894.94 1294.64 1892.14 1291.99C1888.81 1288.84 1887.15 1284.08 1887.15 1277.71V1221.9C1890.91 1219.61 1895.21 1218.46 1900.04 1218.46C1904.91 1218.46 1908.53 1219.5 1910.89 1221.58C1913.29 1223.62 1914.49 1226.48 1914.49 1230.17ZM1975.13 1268.41C1975.13 1270.99 1975.41 1273.07 1975.99 1274.64C1976.56 1276.22 1977.56 1277.45 1978.99 1278.35C1979.03 1278.53 1979.05 1278.87 1979.05 1279.37V1280.34C1979.05 1285.42 1977.51 1289.38 1974.43 1292.21C1971.71 1294.71 1968.34 1295.97 1964.33 1295.97C1961.61 1295.97 1959.12 1295.32 1956.87 1294.03C1954.61 1292.74 1953 1290.88 1952.03 1288.45C1950.81 1288.45 1950.21 1289.04 1950.21 1290.22C1950.21 1291.22 1950.83 1292.35 1952.08 1293.6C1949.76 1295.18 1946.25 1295.97 1941.56 1295.97C1934.93 1295.97 1929.63 1294.18 1925.66 1290.6C1921.72 1286.98 1919.75 1281.95 1919.75 1275.5C1919.75 1269.02 1921.85 1264.01 1926.04 1260.46C1929.87 1257.28 1934.83 1255.68 1940.91 1255.68C1942.99 1255.68 1945 1255.83 1946.93 1256.11C1948.22 1256.36 1948.92 1256.51 1949.02 1256.54C1949.13 1256.18 1949.18 1255.88 1949.18 1255.63C1949.18 1254.7 1948.4 1254.07 1946.82 1253.75C1945.25 1253.43 1943.19 1253.27 1940.64 1253.27C1935.24 1253.27 1930.62 1254.36 1926.79 1256.54C1925.03 1253.57 1924.16 1249.81 1924.16 1245.26C1924.16 1242.69 1924.48 1240.77 1925.12 1239.52C1927.7 1238.33 1930.98 1237.3 1934.95 1236.4C1938.93 1235.47 1943.12 1235 1947.52 1235C1956.61 1235 1963.49 1236.99 1968.14 1240.97C1972.8 1244.94 1975.13 1250.58 1975.13 1257.89V1268.41ZM1947.25 1271.04C1945.75 1271.04 1945 1271.73 1945 1273.09C1945 1274.38 1945.87 1275.02 1947.63 1275.02C1948.84 1275.02 1949.74 1274.73 1950.31 1274.16C1950.89 1273.55 1951.17 1272.51 1951.17 1271.04C1951.17 1271.04 1949.86 1271.04 1947.25 1271.04ZM2006.66 1267.88V1269.11C2006.66 1269.68 2006.67 1270.1 2006.71 1270.35C2007.07 1270.53 2007.46 1270.62 2007.89 1270.62C2008.93 1270.62 2009.45 1269.83 2009.45 1268.25C2009.45 1262.99 2009.73 1257.53 2010.31 1251.87C2010.92 1246.18 2011.56 1241.79 2012.24 1238.71C2015.14 1236.6 2019.01 1235.54 2023.84 1235.54C2028.68 1235.54 2032.4 1236.49 2035.01 1238.39C2037.66 1240.25 2038.99 1242.51 2038.99 1245.16C2038.99 1246.27 2038.33 1250.85 2037 1258.91C2035.53 1267.11 2033.65 1275.74 2031.36 1284.79C2030.9 1286.62 2030.06 1289.18 2028.84 1292.48C2027.66 1295.77 2026.39 1298.51 2025.02 1300.69C2020.76 1307.46 2015.5 1311.65 2009.23 1313.26C2006.3 1314.01 2003.34 1314.39 2000.37 1314.39C1994.61 1314.39 1990.15 1312.96 1987 1310.09C1984.1 1307.51 1982.65 1304.31 1982.65 1300.48C1982.65 1296.68 1983.77 1293.1 1986.03 1289.74C1986.57 1289.59 1987.55 1289.52 1988.98 1289.52C1990.42 1289.52 1992.21 1289.7 1994.36 1290.06C2000.3 1291.17 2003.33 1291.72 2003.43 1291.72C2003.68 1291.76 2003.95 1291.81 2004.24 1291.88C2004.56 1291.92 2004.97 1291.94 2005.47 1291.94C2005.97 1291.94 2006.4 1291.8 2006.76 1291.51C2007.12 1291.22 2007.3 1290.65 2007.3 1289.79L1994.62 1287.37C1991.51 1286.08 1988.81 1283.38 1986.51 1279.26C1983.68 1274.18 1981.77 1267.29 1980.77 1258.58C1978.4 1255.5 1977.22 1251.82 1977.22 1247.52C1977.22 1243.22 1978.3 1239.48 1980.44 1236.29H1994.25C1998.87 1236.29 2002.32 1237.62 2004.61 1240.27C2006.3 1242.24 2007.37 1245.12 2007.84 1248.92C2007.05 1255.15 2006.66 1261.47 2006.66 1267.88Z" fill="black"/>
<path d="M1313.03 1303.27H1637.77V1308.75H1313.03V1303.27Z" fill="black"/>
<defs>
<radialGradient id="paint0_radial_2165_19" cx="0" cy="0" r="1" gradientUnits="userSpaceOnUse" gradientTransform="translate(1500 1000) rotate(90) scale(1000 1500)">
<stop stop-color="white"/>
<stop offset="1" stop-color="#643E30"/>
</radialGradient>
</defs>
</svg>
